<svg height="480pt" viewBox="0 -44 480 480" width="480pt" xmlns="http://www.w3.org/2000/svg" xmlns:xlink="http://www.w3.org/1999/xlink"><linearGradient id="a"><stop offset="0" stop-color="#039bca"/><stop offset=".207" stop-color="#3a7ac4"/><stop offset=".598" stop-color="#9c3fb9"/><stop offset=".871" stop-color="#da1ab2"/><stop offset="1" stop-color="#f20baf"/></linearGradient><linearGradient id="b" gradientUnits="userSpaceOnUse" x1="8" x2="491.256" xlink:href="#a" y1="228" y2="228"/><linearGradient id="c" gradientUnits="userSpaceOnUse" x1="8" x2="491.256" xlink:href="#a" y1="336" y2="336"/><linearGradient id="d" gradientUnits="userSpaceOnUse" x1="8" x2="491.256" xlink:href="#a" y1="112" y2="112"/><linearGradient id="e" gradientUnits="userSpaceOnUse" x1="8" x2="491.256" xlink:href="#a" y1="24" y2="24"/><linearGradient id="f" gradientUnits="userSpaceOnUse" x1="8" x2="491.256" xlink:href="#a" y1="96" y2="96"/><linearGradient id="g" gradientUnits="userSpaceOnUse" x1="7.999939" x2="491.255939" xlink:href="#a" y1="255.994849" y2="255.994849"/><linearGradient id="h" gradientUnits="userSpaceOnUse" x1="7.999716" x2="491.255716" xlink:href="#a" y1="256.006255" y2="256.006255"/><path d="m304 384v-32c0-4.417969-3.582031-8-8-8h-40v-37.601562c24.558594-5.488282 41.535156-10.535157 42.296875-10.757813 3.375-1.011719 5.691406-4.117187 5.703125-7.640625v-72h48v24c0 4.417969 3.582031 8 8 8h32c4.417969 0 8-3.582031 8-8v-64c0-4.417969-3.582031-8-8-8h-40v-16h16v-16h-48v16h16v16h-32v-72c0-3.535156-2.320312-6.648438-5.703125-7.664062-3.3125-.992188-81.863281-24.335938-146.296875-24.335938s-142.984375 23.34375-146.296875 24.335938c-3.382813 1.015624-5.703125 4.128906-5.703125 7.664062v192c0 3.535156 2.320312 6.648438 5.703125 7.664062.761719.222657 17.738281 5.273438 42.296875 10.761719v37.574219h-40c-4.417969 0-8 3.582031-8 8v32c0 4.417969 3.582031 8 8 8h288c4.417969 0 8-3.582031 8-8zm0-200h80v48h-16v-24c0-4.417969-3.582031-8-8-8h-56zm-48 104v-32h16v-16h-16v-16h16v-16h-16v-40h16v-16h-16v-58c14.214844 3.238281 25.601562 6.265625 32 8v179.96875c-6.398438 1.773438-17.816406 4.800781-32 8.054688zm-48-203.199219c11.199219 1.695313 22 3.671875 32 5.726563v189.472656h-32zm0 211.199219h32v48h-32zm-96-8v-120h56v-16h-56v-16h32v-16h-32v-37.375c13.269531-1.65625 26.625-2.53125 40-2.625 13.375.09375 26.730469.96875 40 2.625v125.375h-40v16h40v16h-64v16h64v45.3125c-13.269531 1.679688-26.625 2.578125-40 2.6875-13.375-.109375-26.730469-1.007812-40-2.6875zm0 29.425781c13.273438 1.613281 26.628906 2.476563 40 2.574219 13.371094-.097656 26.726562-.960938 40-2.574219v26.574219h-80zm-48-226.890625c10-2.054687 20.800781-4 32-5.726562v195.191406h-32zm0 205.464844h32v48h-32zm-48-14.03125v-179.929688c6.398438-1.773437 17.785156-4.800781 32-8v25.960938h-16v16h16v16h-16v16h16v72h-16v16h16v34.023438c-14.183594-3.238282-25.601562-6.28125-32-8.054688zm272 94.03125h-272v-16h272zm0 0" fill="url(#b)"/><path d="m338.113281 282.585938c-1.515625 1.644531-2.269531 3.851562-2.082031 6.078124l8 96c.347656 4.144532 3.808594 7.332032 7.96875 7.335938h48c4.171875.015625 7.652344-3.179688 8-7.335938l8-96c.1875-2.234374-.574219-4.445312-2.09375-6.089843-1.523438-1.648438-3.664062-2.582031-5.90625-2.574219h-64c-2.238281 0-4.375.9375-5.886719 2.585938zm54.527344 93.414062h-33.28125l-4-48h41.28125zm6.664063-80-1.335938 16h-43.9375l-1.335938-16zm0 0" fill="url(#c)"/><path d="m448 80c-17.671875 0-32 14.328125-32 32s14.328125 32 32 32 32-14.328125 32-32-14.328125-32-32-32zm0 48c-8.835938 0-16-7.164062-16-16s7.164062-16 16-16 16 7.164062 16 16-7.164062 16-16 16zm0 0" fill="url(#d)"/><path d="m320 48c13.253906 0 24-10.746094 24-24s-10.746094-24-24-24-24 10.746094-24 24 10.746094 24 24 24zm0-32c4.417969 0 8 3.582031 8 8s-3.582031 8-8 8-8-3.582031-8-8 3.582031-8 8-8zm0 0" fill="url(#e)"/><path d="m336 96c0 13.253906 10.746094 24 24 24s24-10.746094 24-24-10.746094-24-24-24-24 10.746094-24 24zm24-8c4.417969 0 8 3.582031 8 8s-3.582031 8-8 8-8-3.582031-8-8 3.582031-8 8-8zm0 0" fill="url(#f)"/><path d="m314.34375 253.65625 11.3125-11.316406 16 16-11.316406 11.3125zm0 0" fill="url(#g)"/><path d="m410.34375 258.34375 16-15.996094 11.3125 11.3125-15.996094 16zm0 0" fill="url(#h)"/></svg>