<svg height="480pt" viewBox="-72 0 480 480" width="480pt" xmlns="http://www.w3.org/2000/svg" xmlns:xlink="http://www.w3.org/1999/xlink"><linearGradient id="a"><stop offset="0" stop-color="#039bca"/><stop offset=".207" stop-color="#3a7ac4"/><stop offset=".598" stop-color="#9c3fb9"/><stop offset=".871" stop-color="#da1ab2"/><stop offset="1" stop-color="#f20baf"/></linearGradient><linearGradient id="b" gradientUnits="userSpaceOnUse" x1="-72" x2="413.368" xlink:href="#a" y1="256" y2="256"/><linearGradient id="c" gradientUnits="userSpaceOnUse" x1="-72" x2="413.368" xlink:href="#a" y1="456" y2="456"/><linearGradient id="d" gradientUnits="userSpaceOnUse" x1="-72" x2="413.368" xlink:href="#a" y1="440" y2="440"/><linearGradient id="e" gradientUnits="userSpaceOnUse" x1="-72" x2="413.368" xlink:href="#a" y1="24" y2="24"/><linearGradient id="f" gradientUnits="userSpaceOnUse" x1="-72" x2="413.368" xlink:href="#a" y1="64" y2="64"/><linearGradient id="g" gradientUnits="userSpaceOnUse" x1="-72" x2="413.368" xlink:href="#a" y1="120" y2="120"/><path d="m40 216v240c0 13.253906 10.746094 24 24 24h112c13.253906 0 24-10.746094 24-24v-240c-.035156-19.132812-13.609375-35.5625-32.390625-39.199219l-7.609375-137.25c-.238281-4.242187-3.75-7.558593-8-7.550781h-64c-4.25-.007812-7.761719 3.308594-8 7.550781l-7.609375 137.25c-18.78125 3.636719-32.355469 20.066407-32.390625 39.199219zm144 88h-28.320312c16.425781-18.171875 16.425781-45.828125 0-64h28.320312zm-88.433594-256h48.867188l.886718 16h-50.640624zm-1.773437 32h52.414062l3.5625 64h-59.539062zm-4.449219 80h61.3125l.886719 16h-63.085938zm-33.34375 56c0-13.253906 10.746094-24 24-24h80c13.253906 0 24 10.746094 24 24v8h-128zm96 56c0 17.671875-14.328125 32-32 32s-32-14.328125-32-32 14.328125-32 32-32 32 14.328125 32 32zm-96-32h28.320312c-16.425781 18.171875-16.425781 45.828125 0 64h-28.320312zm0 208h80v-16h-80v-112h128v16h-56v16h56v104c0 4.417969-3.582031 8-8 8h-112c-4.417969 0-8-3.582031-8-8zm0 0" fill="url(#b)"/><path d="m224 456v16c0 4.417969 3.582031 8 8 8h96c4.417969 0 8-3.582031 8-8v-16c0-13.253906-10.746094-24-24-24h-64c-13.253906 0-24 10.746094-24 24zm16 0c0-4.417969 3.582031-8 8-8h64c4.417969 0 8 3.582031 8 8v8h-80zm0 0" fill="url(#c)"/><path d="m152 432h16v16h-16zm0 0" fill="url(#d)"/><path d="m24 48c13.253906 0 24-10.746094 24-24s-10.746094-24-24-24-24 10.746094-24 24 10.746094 24 24 24zm0-32c4.417969 0 8 3.582031 8 8s-3.582031 8-8 8-8-3.582031-8-8 3.582031-8 8-8zm0 0" fill="url(#e)"/><path d="m208 88c13.253906 0 24-10.746094 24-24s-10.746094-24-24-24-24 10.746094-24 24 10.746094 24 24 24zm0-32c4.417969 0 8 3.582031 8 8s-3.582031 8-8 8-8-3.582031-8-8 3.582031-8 8-8zm0 0" fill="url(#f)"/><path d="m8 120c0 13.253906 10.746094 24 24 24s24-10.746094 24-24-10.746094-24-24-24-24 10.746094-24 24zm32 0c0 4.417969-3.582031 8-8 8s-8-3.582031-8-8 3.582031-8 8-8 8 3.582031 8 8zm0 0" fill="url(#g)"/></svg>