<svg height="480pt" viewBox="-84 0 480 480.00005" width="480pt" xmlns="http://www.w3.org/2000/svg" xmlns:xlink="http://www.w3.org/1999/xlink"><linearGradient id="a"><stop offset="0" stop-color="#039bca"/><stop offset=".207" stop-color="#3a7ac4"/><stop offset=".598" stop-color="#9c3fb9"/><stop offset=".871" stop-color="#da1ab2"/><stop offset="1" stop-color="#f20baf"/></linearGradient><linearGradient id="b" gradientUnits="userSpaceOnUse" x1="-103.999975" x2="397.200025" xlink:href="#a" y1="240" y2="240"/><linearGradient id="c" gradientUnits="userSpaceOnUse" x1="-103.999975" x2="397.200025" xlink:href="#a" y1="160" y2="160"/><linearGradient id="d" gradientUnits="userSpaceOnUse" x1="-103.999975" x2="397.200025" xlink:href="#a" y1="424" y2="424"/><linearGradient id="e" gradientUnits="userSpaceOnUse" x1="-103.999975" x2="397.200025" xlink:href="#a" y1="56" y2="56"/><linearGradient id="f" gradientUnits="userSpaceOnUse" x1="-103.999975" x2="397.200025" xlink:href="#a" y1="128" y2="128"/><linearGradient id="g" gradientUnits="userSpaceOnUse" x1="-103.999975" x2="397.200025" xlink:href="#a" y1="152" y2="152"/><linearGradient id="h" gradientUnits="userSpaceOnUse" x1="-103.999975" x2="397.200025" xlink:href="#a" y1="224" y2="224"/><path d="m200 8c0-4.417969-3.582031-8-8-8h-80c-4.417969 0-8 3.582031-8 8v335.503906l-15.9375 127.503906c-.28125 2.277344.421875 4.566407 1.941406 6.285157 1.519532 1.722656 3.703125 2.707031 5.996094 2.707031h32c4.417969 0 8-3.582031 8-8 0-13.054688 4-40 16-40s16 26.953125 16 40c0 4.417969 3.582031 8 8 8h32c2.292969 0 4.476562-.984375 5.996094-2.707031 1.519531-1.71875 2.222656-4.007813 1.941406-6.285157l-15.9375-127.503906v-23.503906h32v8c0 4.417969 3.582031 8 8 8h8v16h16v-16h8c4.417969 0 8-3.582031 8-8v-64c0-4.417969-3.582031-8-8-8h-11.472656l-21.671875-36.121094-13.710938 8.242188 16.726563 27.878906h-1.871094c-4.417969 0-8 3.582031-8 8v8h-32zm-80 8h64v16h-64zm0 32h64v24h-64zm0 40h64v16h-64zm0 224h16v-16h-16v-16h16v-16h-16v-16h16v-16h-16v-16h16v-16h-16v-16h16v-16h-16v-16h16v-16h-16v-16h64v64h-16v16h16v136h-64zm63.664062 152c-1.222656-15.800781-6.769531-48-31.664062-48s-30.398438 32.199219-31.664062 48h-15.273438l14-112h65.875l14 112zm64.335938-192h16v48h-16zm-16 16v16h-32v-16zm0 0" fill="url(#b)"/><path d="m152 152h16v16h-16zm0 0" fill="url(#c)"/><path d="m296 472.664062 8-96c.1875-2.234374-.574219-4.445312-2.09375-6.089843-1.523438-1.648438-3.664062-2.582031-5.90625-2.574219h-64c-2.242188-.007812-4.382812.925781-5.90625 2.574219-1.519531 1.644531-2.28125 3.855469-2.09375 6.089843l8 96c.347656 4.15625 3.828125 7.351563 8 7.335938h48c4.171875.015625 7.652344-3.179688 8-7.335938zm-15.359375-8.664062h-33.28125l-4-48h41.28125zm5.328125-64h-43.9375l-1.335938-16h46.609376zm0 0" fill="url(#d)"/><path d="m240 32c-13.253906 0-24 10.746094-24 24s10.746094 24 24 24 24-10.746094 24-24-10.746094-24-24-24zm0 32c-4.417969 0-8-3.582031-8-8s3.582031-8 8-8 8 3.582031 8 8-3.582031 8-8 8zm0 0" fill="url(#e)"/><path d="m32 160c17.671875 0 32-14.328125 32-32s-14.328125-32-32-32-32 14.328125-32 32 14.328125 32 32 32zm0-48c8.835938 0 16 7.164062 16 16s-7.164062 16-16 16-16-7.164062-16-16 7.164062-16 16-16zm0 0" fill="url(#f)"/><path d="m280 120c-17.671875 0-32 14.328125-32 32s14.328125 32 32 32 32-14.328125 32-32-14.328125-32-32-32zm0 48c-8.835938 0-16-7.164062-16-16s7.164062-16 16-16 16 7.164062 16 16-7.164062 16-16 16zm0 0" fill="url(#g)"/><path d="m88 224c0-13.253906-10.746094-24-24-24s-24 10.746094-24 24 10.746094 24 24 24 24-10.746094 24-24zm-32 0c0-4.417969 3.582031-8 8-8s8 3.582031 8 8-3.582031 8-8 8-8-3.582031-8-8zm0 0" fill="url(#h)"/></svg>