<svg height="480pt" viewBox="-72 0 480 480" width="480pt" xmlns="http://www.w3.org/2000/svg" xmlns:xlink="http://www.w3.org/1999/xlink"><linearGradient id="a"><stop offset="0" stop-color="#039bca"/><stop offset=".207" stop-color="#3a7ac4"/><stop offset=".598" stop-color="#9c3fb9"/><stop offset=".871" stop-color="#da1ab2"/><stop offset="1" stop-color="#f20baf"/></linearGradient><linearGradient id="b" gradientUnits="userSpaceOnUse" x1="-64.00686" x2="419.24914" xlink:href="#a" y1="240" y2="240"/><linearGradient id="c" gradientUnits="userSpaceOnUse" x1="-64.00686" x2="419.24914" xlink:href="#a" y1="376" y2="376"/><linearGradient id="d" gradientUnits="userSpaceOnUse" x1="-64.00686" x2="419.24914" xlink:href="#a" y1="296" y2="296"/><linearGradient id="e" gradientUnits="userSpaceOnUse" x1="-64.00686" x2="419.24914" xlink:href="#a" y1="144" y2="144"/><linearGradient id="f" gradientUnits="userSpaceOnUse" x1="-64.00686" x2="419.24914" xlink:href="#a" y1="160" y2="160"/><path d="m247.992188 240h-17.4375c5.339843-6.78125 8.617187-14.957031 9.4375-23.550781l7.570312-136.449219h8.429688c4.417968 0 8-3.582031 8-8v-32c0-4.417969-3.582032-8-8-8h-56v-24c0-4.417969-3.582032-8-8-8h-48c-4.417969 0-8 3.582031-8 8v24h-56c-4.417969 0-8 3.582031-8 8v32c0 4.417969 3.582031 8 8 8h8.433593l7.566407 136.726562c.835937 8.5 4.097656 16.578126 9.394531 23.273438h-17.394531c-13.253907 0-24 10.746094-24 24v184h16v32h80v-32h16v32h80v-32h16v-184c0-13.253906-10.746094-24-24-24zm-96-224h32v16h-32zm-64 48v-16h160v16zm16.457031 16h127.089843l-1.65625 29.824219c-1.601562-1.113281-3.109374-2.351563-4.515624-3.703125-5.8125-6.445313-14.089844-10.125-22.769532-10.125-8.683594 0-16.957031 3.679687-22.773437 10.125-2.835938 3.699218-7.230469 5.871094-11.894531 5.871094-4.664063 0-9.0625-2.171876-11.898438-5.871094-5.804688-6.449219-14.074219-10.128906-22.75-10.128906s-16.945312 3.679687-22.753906 10.128906c-1.378906 1.328125-2.859375 2.546875-4.429688 3.648437zm31.542969 128v16h24v16h-24c-12.835938-1.316406-22.917969-11.585938-24-24.449219l-4.925782-88.710937c5.445313-1.761719 10.371094-4.84375 14.34375-8.96875 2.832032-3.699219 7.226563-5.871094 11.886719-5.871094s9.054687 2.171875 11.886719 5.871094c5.8125 6.449218 14.082031 10.128906 22.761718 10.128906 8.679688 0 16.949219-3.679688 22.761719-10.128906 2.839844-3.703125 7.246094-5.871094 11.914063-5.871094 4.667968 0 9.074218 2.167969 11.917968 5.871094 3.980469 4.140625 8.929688 7.226562 14.398438 8.984375l-4.945312 88.417969c-.976563 12.957031-11.074219 23.363281-24 24.726562h-24v-16h24v-16zm8 256h-48v-16h48zm96 0h-48v-16h48zm16-32h-16v-32h-16v32h-144v-168c0-4.417969 3.582031-8 8-8h8v56h16v-56h136c4.417968 0 8 3.582031 8 8zm0 0" fill="url(#b)"/><path d="m167.992188 336c-22.089844 0-40 17.910156-40 40s17.910156 40 40 40c22.09375 0 40-17.910156 40-40-.027344-22.082031-17.917969-39.972656-40-40zm0 64c-13.253907 0-24-10.746094-24-24 .015624-3.5625.835937-7.078125 2.402343-10.28125l31.878907 31.882812c-3.203126 1.5625-6.714844 2.382813-10.28125 2.398438zm21.601562-13.71875-31.878906-31.882812c3.199218-1.5625 6.714844-2.382813 10.277344-2.398438 13.253906 0 24 10.746094 24 24-.011719 3.5625-.832032 7.078125-2.398438 10.28125zm0 0" fill="url(#c)"/><path d="m127.992188 320h80v-48h-80zm16-32h48v16h-48zm0 0" fill="url(#d)"/><path d="m223.992188 368h16v16h-16zm0 0" fill="url(#c)"/><path d="m127.992188 136h16v16h-16zm0 0" fill="url(#e)"/><path d="m159.992188 152h16v16h-16zm0 0" fill="url(#f)"/><g fill="url(#e)"><path d="m55.992188 104-5.65625-5.65625c-11.503907 12.457031-18.03125 28.703125-18.34375 45.65625.3125 16.953125 6.839843 33.199219 18.34375 45.65625l11.3125-11.3125c-8.535157-9.433594-13.382813-21.625-13.65625-34.34375.339843-12.726562 5.1875-24.917969 13.679687-34.398438zm0 0"/><path d="m23.992188 96-6.152344-5.121094c-23.785156 31.417969-23.785156 74.824219 0 106.242188l12.320312-10.226563c-18.898437-25.472656-18.898437-60.316406 0-85.789062zm0 0"/><path d="m274.335938 109.65625c8.539062 9.433594 13.386718 21.625 13.65625 34.34375-.34375 12.703125-5.183594 24.871094-13.65625 34.34375l11.3125 11.3125c11.503906-12.457031 18.03125-28.703125 18.34375-45.65625-.3125-16.953125-6.839844-33.199219-18.34375-45.65625zm0 0"/><path d="m305.824219 101.105469c18.890625 25.46875 18.890625 60.300781 0 85.773437l12.304687 10.242188c23.789063-31.417969 23.789063-74.824219 0-106.242188zm0 0"/></g></svg>