<svg height="480pt" viewBox="-112 0 480 480.00001" width="480pt" xmlns="http://www.w3.org/2000/svg" xmlns:xlink="http://www.w3.org/1999/xlink"><linearGradient id="a"><stop offset="0" stop-color="#039bca"/><stop offset=".207" stop-color="#3a7ac4"/><stop offset=".598" stop-color="#9c3fb9"/><stop offset=".871" stop-color="#da1ab2"/><stop offset="1" stop-color="#f20baf"/></linearGradient><linearGradient id="b" gradientUnits="userSpaceOnUse" x1="-119.999995" x2="387.104005" xlink:href="#a" y1="240" y2="240"/><linearGradient id="c" gradientUnits="userSpaceOnUse" x1="-119.999995" x2="387.104005" xlink:href="#a" y1="416" y2="416"/><linearGradient id="d" gradientUnits="userSpaceOnUse" x1="-119.999995" x2="387.104005" xlink:href="#a" y1="344" y2="344"/><linearGradient id="e" gradientUnits="userSpaceOnUse" x1="-119.999995" x2="387.104005" xlink:href="#a" y1="320" y2="320"/><linearGradient id="f" gradientUnits="userSpaceOnUse" x1="-119.999995" x2="387.104005" xlink:href="#a" y1="296" y2="296"/><linearGradient id="g" gradientUnits="userSpaceOnUse" x1="-119.999995" x2="387.104005" xlink:href="#a" y1="112" y2="112"/><path d="m248 184c4.417969 0 8-3.582031 8-8v-32c0-4.417969-3.582031-8-8-8h-8.367188c-3.816406-49.347656-39.355468-90.441406-87.632812-101.335938v-26.664062c0-4.417969-3.582031-8-8-8h-32c-4.417969 0-8 3.582031-8 8v26.664062c-48.277344 10.894532-83.816406 51.988282-87.632812 101.335938h-8.367188c-4.417969 0-8 3.582031-8 8v32c0 4.417969 3.582031 8 8 8h24.414062l15.585938 288.433594c.230469 4.246094 3.746094 7.574218 8 7.566406h144c4.253906.007812 7.769531-3.320312 8-7.566406l15.585938-288.433594zm-128-168h16v16.304688c-5.328125-.367188-10.671875-.367188-16 0zm-6.785156 33.105469c9.8125-1.46875 19.789062-1.46875 29.601562 0 43.648438 7.066406 76.941406 42.847656 80.847656 86.894531h-159.351562c.316406-16.75 7.835938-32.546875 20.632812-43.359375l-9.921874-12.550781c-16.660157 13.824218-26.417969 34.261718-26.695313 55.910156h-16c3.910156-44.058594 37.222656-79.84375 80.886719-86.894531zm-64.765625 134.894531h55.550781v72h-51.664062zm144 280h-128.875l-10.398438-192h149.601563zm-72.449219-208v-72h16v72zm83.664062 0h-51.664062v-72h55.550781zm-187.664062-88v-16h224v16zm0 0" fill="url(#b)"/><path d="m128 440c-.007812-3.0625-.605469-6.09375-1.761719-8.929688.910157-.214843 1.808594-.480468 2.691407-.796874 2.554687 9.59375 10.769531 16.613281 20.644531 17.644531s19.363281-4.144531 23.84375-13.007813c4.480469-8.859375 3.023437-19.566406-3.65625-26.910156 6.6875-7.339844 8.148437-18.046875 3.667969-26.90625-4.480469-8.863281-13.96875-14.035156-23.84375-12.996094-9.875 1.035156-18.082032 8.0625-20.625 17.664063-8.921876-3.652344-19.164063-1.59375-25.980469 5.21875-6.8125 6.816406-8.871094 17.058593-5.21875 25.980469-11.984375 3.257812-19.488281 15.132812-17.285157 27.355468 2.199219 12.21875 13.371094 20.730469 25.738282 19.609375 12.363281-1.121093 21.824218-11.507812 21.785156-23.925781zm24-56c4.417969 0 8 3.582031 8 8s-3.582031 8-8 8-8-3.582031-8-8 3.582031-8 8-8zm0 32c4.417969 0 8 3.582031 8 8s-3.582031 8-8 8-8-3.582031-8-8 3.582031-8 8-8zm-48 32c-4.417969 0-8-3.582031-8-8s3.582031-8 8-8 8 3.582031 8 8-3.582031 8-8 8zm8-40c0-4.417969 3.582031-8 8-8s8 3.582031 8 8-3.582031 8-8 8-8-3.582031-8-8zm0 0" fill="url(#c)"/><path d="m104 320c-13.253906 0-24 10.746094-24 24s10.746094 24 24 24 24-10.746094 24-24-10.746094-24-24-24zm0 32c-4.417969 0-8-3.582031-8-8s3.582031-8 8-8 8 3.582031 8 8-3.582031 8-8 8zm0 0" fill="url(#d)"/><path d="m136 320c0 13.253906 10.746094 24 24 24s24-10.746094 24-24-10.746094-24-24-24-24 10.746094-24 24zm24-8c4.417969 0 8 3.582031 8 8s-3.582031 8-8 8-8-3.582031-8-8 3.582031-8 8-8zm0 0" fill="url(#e)"/><path d="m72 288h16v16h-16zm0 0" fill="url(#f)"/><path d="m184 104h16v16h-16zm0 0" fill="url(#g)"/></svg>