<svg height="480pt" viewBox="-120 0 480 480" width="480pt" xmlns="http://www.w3.org/2000/svg" xmlns:xlink="http://www.w3.org/1999/xlink"><linearGradient id="a"><stop offset="0" stop-color="#039bca"/><stop offset=".207" stop-color="#3a7ac4"/><stop offset=".598" stop-color="#9c3fb9"/><stop offset=".871" stop-color="#da1ab2"/><stop offset="1" stop-color="#f20baf"/></linearGradient><linearGradient id="b" gradientUnits="userSpaceOnUse" x1="-120" x2="361.064" xlink:href="#a" y1="240" y2="240"/><linearGradient id="c" gradientUnits="userSpaceOnUse" x1="-120" x2="361.064" xlink:href="#a" y1="380" y2="380"/><linearGradient id="d" gradientUnits="userSpaceOnUse" x1="-120" x2="361.064" xlink:href="#a" y1="408" y2="408"/><linearGradient id="e" gradientUnits="userSpaceOnUse" x1="-120" x2="361.064" xlink:href="#a" y1="120" y2="120"/><path d="m0 440c.125 1.222656.40625 2.425781.839844 3.574219l16 32c1.355468 2.714843 4.128906 4.425781 7.160156 4.425781h200c3.667969 0 6.867188-2.496094 7.761719-6.054688l8-32c.121093-.644531.203125-1.292968.238281-1.945312v-352c-.113281-1.222656-.382812-2.421875-.800781-3.574219l-16-32c-1.359375-2.726562-4.152344-4.441406-7.199219-4.425781h-32v-40c0-4.417969-3.582031-8-8-8h-32c-4.417969 0-8 3.582031-8 8v40h-112c-3.03125 0-5.804688 1.710938-7.160156 4.425781l-16 32c-.433594 1.148438-.714844 2.351563-.839844 3.574219zm217.753906 24h-188.800781l-8-16h200.800781zm-65.753906-448h16v32h-16zm-123.054688 48h182.109376l8 16h-198.109376zm-12.945312 64h32v-16h-32v-16h208v16h-104v16h104v36.6875l-18.34375-18.34375c-2.289062-2.285156-5.730469-2.972656-8.71875-1.734375s-4.9375 4.15625-4.9375 7.390625v60.6875l-66.34375-66.34375c-2.289062-2.285156-5.730469-2.972656-8.71875-1.734375s-4.9375 4.15625-4.9375 7.390625v60.6875l-66.34375-66.34375c-2.289062-2.285156-5.730469-2.972656-8.71875-1.734375s-4.9375 4.15625-4.9375 7.390625v60.6875l-16-16zm0 91.3125 18.34375 18.34375c2.289062 2.285156 5.730469 2.972656 8.71875 1.734375s4.9375-4.15625 4.9375-7.390625v-60.6875l66.34375 66.34375c2.289062 2.285156 5.730469 2.972656 8.71875 1.734375s4.9375-4.15625 4.9375-7.390625v-60.6875l66.34375 66.34375c2.289062 2.285156 5.730469 2.972656 8.71875 1.734375s4.9375-4.15625 4.9375-7.390625v-60.6875l16 16v129.375l-66.34375-66.34375c-2.289062-2.285156-5.730469-2.972656-8.71875-1.734375s-4.9375 4.15625-4.9375 7.390625v60.6875l-66.34375-66.34375c-2.289062-2.285156-5.730469-2.972656-8.71875-1.734375s-4.9375 4.15625-4.9375 7.390625v60.6875l-48-48zm0 72 50.34375 50.34375c2.289062 2.285156 5.730469 2.972656 8.71875 1.734375s4.9375-4.15625 4.9375-7.390625v-60.6875l66.34375 66.34375c2.289062 2.285156 5.730469 2.972656 8.71875 1.734375s4.9375-4.15625 4.9375-7.390625v-60.6875l64 64v60.6875h-56v16h56v16h-208zm0 0" fill="url(#b)"/><path d="m48 344h-16v72h48v-16h-32zm0 0" fill="url(#c)"/><path d="m136 400h16v16h-16zm0 0" fill="url(#d)"/><path d="m64 112h16v16h-16zm0 0" fill="url(#e)"/></svg>