<svg height="480pt" viewBox="-108 0 480 480" width="480pt" xmlns="http://www.w3.org/2000/svg" xmlns:xlink="http://www.w3.org/1999/xlink"><linearGradient id="a"><stop offset="0" stop-color="#039bca"/><stop offset=".207" stop-color="#3a7ac4"/><stop offset=".598" stop-color="#9c3fb9"/><stop offset=".871" stop-color="#da1ab2"/><stop offset="1" stop-color="#f20baf"/></linearGradient><linearGradient id="b" gradientUnits="userSpaceOnUse" x1="-144" x2="337.064" xlink:href="#a" y1="240" y2="240"/><linearGradient id="c" gradientUnits="userSpaceOnUse" x1="-144" x2="337.064" xlink:href="#a" y1="360" y2="360"/><linearGradient id="d" gradientUnits="userSpaceOnUse" x1="-144" x2="337.064" xlink:href="#a" y1="392" y2="392"/><linearGradient id="e" gradientUnits="userSpaceOnUse" x1="-144" x2="337.064" xlink:href="#a" y1="112" y2="112"/><linearGradient id="f" gradientUnits="userSpaceOnUse" x1="-144" x2="337.064" xlink:href="#a" y1="144" y2="144"/><linearGradient id="g" gradientUnits="userSpaceOnUse" x1="-144" x2="337.064" xlink:href="#a" y1="128" y2="128"/><linearGradient id="h" gradientUnits="userSpaceOnUse" x1="-144" x2="337.064" xlink:href="#a" y1="184" y2="184"/><linearGradient id="i" gradientUnits="userSpaceOnUse" x1="-144" x2="337.064" xlink:href="#a" y1="216" y2="216"/><linearGradient id="j" gradientUnits="userSpaceOnUse" x1="-144" x2="337.064" xlink:href="#a" y1="200" y2="200"/><linearGradient id="k" gradientUnits="userSpaceOnUse" x1="-144" x2="337.064" xlink:href="#a" y1="80" y2="80"/><linearGradient id="l" gradientUnits="userSpaceOnUse" x1="-144" x2="337.064" xlink:href="#a" y1="96" y2="96"/><path d="m67.601562 185.183594c-7.679687 20.113281-16.539062 39.753906-26.539062 58.816406-9.382812 15.894531-15.203125 33.636719-17.0625 52v176c0 4.417969 3.582031 8 8 8h176c4.417969 0 8-3.582031 8-8v-176c-1.859375-18.363281-7.679688-36.105469-17.0625-52-10-19.066406-18.859375-38.710938-26.539062-58.824219-1.941407-4.800781-3.644532-9.015625-5.03125-12.296875-7.320313-17.375-12.605469-66.925781-14.734376-92.886718h7.367188c4.417969 0 8-3.582032 8-8v-31.992188c0-4.417969-3.582031-8-8-8h-8v-24c0-4.417969-3.582031-8-8-8h-48c-4.417969 0-8 3.582031-8 8v24h-8c-4.417969 0-8 3.582031-8 8v32c0 4.417969 3.582031 8 8 8h7.367188c-2.128907 25.960938-7.414063 75.511719-14.734376 92.886719-1.386718 3.28125-3.089843 7.488281-5.03125 12.296875zm-12.664062 66.816406c4-7 8.191406-15.609375 12.207031-24.511719l11.34375 4.511719c-4.246093 7.285156-6.484375 15.566406-6.488281 24 0 .441406.054688.871094.0625 1.304688l-17.207031-5.167969zm145.0625 212h-160v-32h160zm0-48h-160v-80h160zm0-120v24h-160v-24c.867188-10.140625 3.496094-20.050781 7.769531-29.289062l28.230469 8.488281c8.027344 18.359375 26.613281 29.800781 46.621094 28.699219 20.007812-1.101563 37.226562-14.519532 43.1875-33.652344l23.792968-9.445313c5.636719 10.976563 9.164063 22.917969 10.398438 35.199219zm-112-40c0-17.671875 14.328125-32 32-32s32 14.328125 32 32-14.328125 32-32 32-32-14.328125-32-32zm84.855469-28.519531c3.03125 6.734375 6.152343 13.246093 9.242187 19.070312l-14.289062 5.695313c-.546875-7.136719-2.699219-14.054688-6.296875-20.246094zm-68.855469-211.480469h32v16h-32zm-16 32h64v16h-64zm-5.601562 143.199219c1.914062-4.71875 3.585937-8.855469 4.9375-12.070313 9.105468-21.601562 14.398437-78.535156 16.046874-99.113281h33.167969c1.664063 20.578125 6.945313 77.519531 16.050781 99.113281 1.351563 3.199219 3.023438 7.351563 4.933594 12.070313 2.554688 6.320312 5.601563 13.832031 8.890625 21.601562l-15.792969 6.296875c-17.761718-14.808594-43.566406-14.808594-61.328124 0l-15.761719-6.296875c3.296875-7.785156 6.335937-15.296875 8.855469-21.601562zm0 0" fill="url(#b)"/><path d="m80 352h80v16h-80zm0 0" fill="url(#c)"/><g fill="url(#d)"><path d="m56 384h16v16h-16zm0 0"/><path d="m88 384h64v16h-64zm0 0"/><path d="m168 384h16v16h-16zm0 0"/></g><path d="m16 104h16v16h-16zm0 0" fill="url(#e)"/><path d="m16 136h16v16h-16zm0 0" fill="url(#f)"/><path d="m0 120h16v16h-16zm0 0" fill="url(#g)"/><path d="m32 120h16v16h-16zm0 0" fill="url(#g)"/><path d="m232 176h16v16h-16zm0 0" fill="url(#h)"/><path d="m232 208h16v16h-16zm0 0" fill="url(#i)"/><path d="m216 192h16v16h-16zm0 0" fill="url(#j)"/><path d="m248 192h16v16h-16zm0 0" fill="url(#j)"/><path d="m200 72h16v16h-16zm0 0" fill="url(#k)"/><path d="m200 104h16v16h-16zm0 0" fill="url(#e)"/><path d="m184 88h16v16h-16zm0 0" fill="url(#l)"/><path d="m216 88h16v16h-16zm0 0" fill="url(#l)"/></svg>