<svg height="480pt" viewBox="-28 0 480 480.00009" width="480pt" xmlns="http://www.w3.org/2000/svg" xmlns:xlink="http://www.w3.org/1999/xlink"><linearGradient id="a"><stop offset="0" stop-color="#039bca"/><stop offset=".207" stop-color="#3a7ac4"/><stop offset=".598" stop-color="#9c3fb9"/><stop offset=".871" stop-color="#da1ab2"/><stop offset="1" stop-color="#f20baf"/></linearGradient><linearGradient id="b" gradientUnits="userSpaceOnUse" x1="-47.999955" x2="433.064045" xlink:href="#a" y1="240" y2="240"/><linearGradient id="c" gradientUnits="userSpaceOnUse" x1="-47.999955" x2="433.064045" xlink:href="#a" y1="48" y2="48"/><linearGradient id="d" gradientUnits="userSpaceOnUse" x1="-47.999955" x2="433.064045" xlink:href="#a" y1="64" y2="64"/><linearGradient id="e" gradientUnits="userSpaceOnUse" x1="-47.999955" x2="433.064045" xlink:href="#a" y1="16" y2="16"/><linearGradient id="f" gradientUnits="userSpaceOnUse" x1="-47.999955" x2="433.064045" xlink:href="#a" y1="217.168" y2="217.168"/><path d="m0 8v120c0 3.234375 1.949219 6.152344 4.9375 7.390625 2.992188 1.238281 6.429688.550781 8.71875-1.734375l54.34375-54.34375 20 20v28.6875c.035156 30.914062 25.085938 55.964844 56 56 8.835938 0 16 7.164062 16 16v40c.027344 22.082031 17.917969 39.972656 40 40v155.71875l-44.441406 29.601562c-2.953125 1.949219-4.277344 5.605469-3.253906 8.996094 1.023437 3.386719 4.15625 5.699219 7.695312 5.683594h128c3.527344 0 6.636719-2.304688 7.660156-5.679688 1.019532-3.375-.285156-7.019531-3.21875-8.976562l-44.441406-29.625v-155.71875c22.082031-.027344 39.972656-17.917969 40-40v-40c0-8.835938 7.164062-16 16-16 30.914062-.035156 55.964844-25.085938 56-56v-24h64v-8c-.429688-51.148438-40.886719-92.976562-91.992188-95.113281-51.105468-2.132813-94.910156 36.179687-99.601562 87.113281h-133.09375l-20-20 54.34375-54.34375c2.285156-2.289062 2.972656-5.730469 1.734375-8.71875s-4.15625-4.9375-7.390625-4.9375h-120c-4.417969 0-8 3.582031-8 8zm261.601562 456h-75.203124l24-16h27.203124zm-45.601562-32v-152h16v152zm88-264c-17.671875 0-32 14.328125-32 32v40c0 13.253906-10.746094 24-24 24h-48c-13.253906 0-24-10.746094-24-24v-40c0-17.671875-14.328125-32-32-32-19-.023438-35.371094-13.386719-39.199219-32h238.398438c-3.828125 18.613281-20.199219 31.976562-39.199219 32zm38.945312-80 17.855469-26.800781c7.640625 7.109375 12.742188 16.519531 14.535157 26.800781zm-34.449218-35.679688c12.363281-5.761718 26.644531-5.761718 39.007812 0l-19.503906 29.28125zm4.558594 35.679688h-32.390626c1.792969-10.28125 6.894532-19.691406 14.535157-26.800781zm14.945312-72c41.066406.050781 75.441406 31.144531 79.601562 72h-16.152343c-4.007813-31.992188-31.207031-55.996094-63.449219-55.996094s-59.441406 24.003906-63.449219 55.996094h-16.152343c4.160156-40.855469 38.535156-71.949219 79.601562-72zm-224 88h240v16h-240zm4.6875-88-22.289062 22.265625-44.511719-22.265625zm-34.191406 34.191406-24.304688 24.304688-24.304687-48.609375zm-58.496094-8.304687 22.265625 44.511719-22.265625 22.289062zm0 0" fill="url(#b)"/><path d="m152 40h16v16h-16zm0 0" fill="url(#c)"/><path d="m192 56h16v16h-16zm0 0" fill="url(#d)"/><path d="m184 8h16v16h-16zm0 0" fill="url(#e)"/><path d="m256 232c-.03125-7.660156-2.832031-15.046875-7.886719-20.800781l29.542969-29.542969-11.3125-11.3125-31.632812 31.632812c-13.113282-4.632812-27.722657-.238281-36.101563 10.859376-8.382813 11.101562-8.613281 26.351562-.566406 37.699218 8.042969 11.347656 22.511719 16.179688 35.761719 11.941406 13.246093-4.238281 22.226562-16.566406 22.195312-30.476562zm-32 16c-8.835938 0-16-7.164062-16-16s7.164062-16 16-16 16 7.164062 16 16-7.164062 16-16 16zm0 0" fill="url(#f)"/></svg>