<svg height="480pt" viewBox="-112 0 480 480.00001" width="480pt" xmlns="http://www.w3.org/2000/svg" xmlns:xlink="http://www.w3.org/1999/xlink"><linearGradient id="a"><stop offset="0" stop-color="#039bca"/><stop offset=".207" stop-color="#3a7ac4"/><stop offset=".598" stop-color="#9c3fb9"/><stop offset=".871" stop-color="#da1ab2"/><stop offset="1" stop-color="#f20baf"/></linearGradient><linearGradient id="b" gradientUnits="userSpaceOnUse" x1="-135.999995" x2="365.200005" xlink:href="#a" y1="240" y2="240"/><linearGradient id="c" gradientUnits="userSpaceOnUse" x1="-135.999995" x2="365.200005" xlink:href="#a" y1="432" y2="432"/><linearGradient id="d" gradientUnits="userSpaceOnUse" x1="-135.999995" x2="365.200005" xlink:href="#a" y1="264" y2="264"/><path d="m256 152v-32c0-4.417969-3.582031-8-8-8h-10.230469l-14.175781-42.527344c-1.089844-3.269531-4.148438-5.472656-7.59375-5.472656h-16v-56c0-4.417969-3.582031-8-8-8h-32c-4.417969 0-8 3.582031-8 8v56h-112c-3.445312 0-6.503906 2.203125-7.59375 5.472656l-14.175781 42.527344h-10.230469c-4.417969 0-8 3.582031-8 8v32c0 4.417969 3.582031 8 8 8h8.390625l15.609375 312.398438c.214844 4.261718 3.734375 7.605468 8 7.601562h176c4.265625.003906 7.785156-3.339844 8-7.601562l15.609375-312.398438h8.390625c4.417969 0 8-3.582031 8-8zm-88-136h16v48h-16zm-122.230469 64h164.460938l10.671875 32h-185.804688zm-9.363281 160h99.59375v24c0 4.417969 3.582031 8 8 8 17.671875 0 32 14.328125 32 32s-14.328125 32-32 32c-4.417969 0-8 3.582031-8 8v24h-93.191406zm173.601562 192h-42.007812v16h41.191406l-.800781 16h-160.796875l-4-80h168.796875zm3.199219-64h-61.207031v-16.664062c23.113281-3.886719 40.042969-23.898438 40.042969-47.335938s-16.929688-43.449219-40.042969-47.335938v-16.664062h67.59375zm7.199219-144h-184.796875l-1.601563-32h37.992188v-16h-38.792969l-.800781-16h191.203125zm19.59375-80h-224v-16h224zm0 0" fill="url(#b)"/><path d="m80 416h-16v32h32v-16h-16zm0 0" fill="url(#c)"/><g fill="url(#d)"><path d="m104 256h16v16h-16zm0 0"/><path d="m72 256h16v16h-16zm0 0"/></g></svg>