<svg height="480pt" viewBox="-68 0 480 480" width="480pt" xmlns="http://www.w3.org/2000/svg" xmlns:xlink="http://www.w3.org/1999/xlink"><linearGradient id="a"><stop offset="0" stop-color="#039bca"/><stop offset=".207" stop-color="#3a7ac4"/><stop offset=".598" stop-color="#9c3fb9"/><stop offset=".871" stop-color="#da1ab2"/><stop offset="1" stop-color="#f20baf"/></linearGradient><linearGradient id="b" gradientUnits="userSpaceOnUse" x1="-63.998803" x2="421.369197" xlink:href="#a" y1="296" y2="296"/><linearGradient id="c" gradientUnits="userSpaceOnUse" x1="-63.998803" x2="421.369197" xlink:href="#a" y1="440" y2="440"/><linearGradient id="d" gradientUnits="userSpaceOnUse" x1="-63.998803" x2="421.369197" xlink:href="#a" y1="152" y2="152"/><linearGradient id="e" gradientUnits="userSpaceOnUse" x1="-63.998803" x2="421.369197" xlink:href="#a" y1="240" y2="240"/><linearGradient id="f" gradientUnits="userSpaceOnUse" x1="-63.998803" x2="421.369197" xlink:href="#a" y1="67.768" y2="67.768"/><linearGradient id="g" gradientUnits="userSpaceOnUse" x1="-63.998803" x2="421.377197" xlink:href="#a" y1="115.768" y2="115.768"/><path d="m184 376c29.125.054688 55.96875-15.75 70.046875-41.242188 14.082031-25.496093 13.164063-56.632812-2.390625-81.253906 7.652344-4.457031 12.355469-12.648437 12.34375-21.503906h-16c-.347656 3.847656-2.738281 7.207031-6.253906 8.800781-15.039063-15.824219-35.914063-24.785156-57.746094-24.785156-21.828125 0-42.703125 8.960937-57.742188 24.785156-3.519531-1.59375-5.910156-4.953125-6.257812-8.800781h-16c-.007812 8.855469 4.695312 17.046875 12.34375 21.503906-15.554688 24.621094-16.46875 55.757813-2.390625 81.253906 14.082031 25.492188 40.925781 41.296876 70.046875 41.242188zm0-144c14.746094-.007812 29.039062 5.097656 40.441406 14.449219-5.429687.96875-10.925781 1.488281-16.441406 1.550781h-48c-5.515625-.0625-11.015625-.582031-16.445312-1.550781 11.402343-9.355469 25.699218-14.460938 40.445312-14.449219zm16 32v39.015625l-6.246094 24.984375h-19.503906l-6.25-24.984375v-39.015625zm-68.878906-4c6.820312 1.910156 13.816406 3.128906 20.878906 3.640625v40.359375l9.753906 40h44.496094l9.511719-38.0625.175781-42.28125c7.085938-.515625 14.101562-1.738281 20.945312-3.65625 18.175782 26.660156 13.660157 62.6875-10.535156 84.039062-24.195312 21.351563-60.5 21.351563-84.695312 0-24.195313-21.351562-28.707032-57.378906-10.53125-84.039062zm0 0" fill="url(#b)"/><g fill="url(#c)"><path d="m104 432h16v16h-16zm0 0"/><path d="m176 432h16v16h-16zm0 0"/><path d="m248 432h16v16h-16zm0 0"/></g><path d="m192 144h16v16h-16zm0 0" fill="url(#d)"/><path d="m75.761719 145.214844c-2.339844 1.464844-3.761719 4.027344-3.761719 6.785156v288c.027344 22.082031 17.921875 39.972656 40 40h144c22.082031-.027344 39.976562-17.917969 40-40v-288c0-2.757812-1.417969-5.320312-3.757812-6.785156l-60.242188-37.65625v-27.558594h16v-80h-128v80h16v27.558594zm204.238281 294.785156c0 13.253906-10.742188 24-24 24h-34.933594c7.519532-8.921875 11.421875-20.339844 10.933594-32h-16c.339844 8.585938-2.921875 16.925781-9 23-6.074219 6.078125-14.414062 9.339844-23 9-1.421875 0-32-.433594-32-32h-16c-.484375 11.660156 3.417969 23.078125 10.9375 32h-34.9375c-13.253906 0-24-10.746094-24-24v-24h192zm0-40h-192v-208h192zm-144-352h24v-16h-24v-16h96v16h-16v16h16v16h-96zm80 32v24h-64v-24zm-69.703125 40h75.410156l38.398438 24h-20.105469v16h40v16h-192v-16h88v-16h-68.101562zm0 0" fill="url(#e)"/><path d="m313.34375 11.558594-32 48c-1.636719 2.457031-1.789062 5.613281-.398438 8.214844 1.394532 2.601562 4.105469 4.226562 7.054688 4.226562h34.210938l-25.152344 44 13.886718 7.9375 32-56c1.398438-2.476562 1.378907-5.503906-.050781-7.960938-1.429687-2.457031-4.050781-3.96875-6.894531-3.976562h-33.054688l23.710938-35.558594zm0 0" fill="url(#f)"/><path d="m33.34375 59.558594-32 48c-1.636719 2.457031-1.789062 5.613281-.398438 8.214844 1.394532 2.601562 4.105469 4.226562 7.054688 4.226562h34.210938l-25.152344 44 13.886718 7.9375 32-56c1.398438-2.476562 1.378907-5.503906-.050781-7.960938-1.429687-2.457031-4.050781-3.96875-6.894531-3.976562h-33.054688l23.710938-35.558594zm0 0" fill="url(#g)"/></svg>