<svg height="480pt" viewBox="-31 0 479 480" width="480pt" xmlns="http://www.w3.org/2000/svg" xmlns:xlink="http://www.w3.org/1999/xlink"><linearGradient id="a"><stop offset="0" stop-color="#039bca"/><stop offset=".207" stop-color="#3a7ac4"/><stop offset=".598" stop-color="#9c3fb9"/><stop offset=".871" stop-color="#da1ab2"/><stop offset="1" stop-color="#f20baf"/></linearGradient><linearGradient id="b" gradientUnits="userSpaceOnUse" x1="-55.5" x2="425.564" xlink:href="#a" y1="320" y2="320"/><linearGradient id="c" gradientUnits="userSpaceOnUse" x1="-55.5" x2="425.564" xlink:href="#a" y1="60" y2="60"/><linearGradient id="d" gradientUnits="userSpaceOnUse" x1="-55.5" x2="425.564" xlink:href="#a" y1="84" y2="84"/><path d="m408.5 384h-58.847656c16.96875-13.636719 26.84375-34.230469 26.847656-56v-16c0-4.417969-3.582031-8-8-8h-64c-2.398438 0-4.800781.128906-7.199219.359375l7.199219-135.933594c.117188-2.195312-.675781-4.339843-2.1875-5.933593s-3.613281-2.496094-5.8125-2.492188h-224c-2.199219-.003906-4.300781.898438-5.8125 2.492188s-2.304688 3.738281-2.1875 5.933593l8 152.148438c2.097656 25.140625 14.792969 48.203125 34.910156 63.425781h-98.910156c-4.417969 0-8 3.582031-8 8v16c.027344 22.082031 17.917969 39.972656 40 40h8v24c0 4.417969 3.582031 8 8 8h304c4.417969 0 8-3.582031 8-8v-24h8c22.082031-.027344 39.972656-17.917969 40-40v-16c0-4.417969-3.582031-8-8-8zm-104-64h56v8c-.035156 30.914062-25.085938 55.964844-56 56h-35.121094l55.242188-33.144531-8.242188-13.710938-67.878906 40.726563v-1.871094c.035156-30.914062 25.085938-55.964844 56-56zm-223.566406-144h207.132812l-.796875 16h-205.496093zm1.6875 32h203.757812l-.800781 16h-202.117187zm1.679687 32h200.398438l-.800781 16h-198.757813zm4.199219 79.574219-2.511719-47.574219h197.023438l-1.886719 36c-17.5625 6.074219-32.113281 18.679688-40.625 35.199219-12.296875-24.03125-37.003906-39.164063-64-39.199219h-64c-4.417969 0-8 3.582031-8 8v16c-.003906 17.179688 6.167969 33.789062 17.390625 46.800781-19.183594-12.144531-31.546875-32.59375-33.390625-55.226562zm123.121094 64.425781h-35.121094c-30.914062-.035156-55.964844-25.085938-56-56v-8h56c30.914062.035156 55.964844 25.085938 56 56v1.871094l-67.878906-40.726563-8.242188 13.710938zm140.878906 80h-288v-16h288zm48-56c0 13.253906-10.746094 24-24 24h-336c-13.253906 0-24-10.746094-24-24v-8h384zm0 0" fill="url(#b)"/><path d="m208.5 120h16c.167969-5.6875 2.449219-11.105469 6.398438-15.199219 6.058593-6.855469 9.464843-15.652343 9.601562-24.800781-.136719-9.148438-3.542969-17.945312-9.601562-24.800781-3.949219-4.09375-6.230469-9.511719-6.398438-15.199219.175781-5.683594 2.457031-11.101562 6.398438-15.199219 6.0625-6.855469 9.464843-15.652343 9.601562-24.800781h-16c-.175781 5.683594-2.457031 11.101562-6.398438 15.199219-6.0625 6.855469-9.464843 15.652343-9.601562 24.800781.136719 9.148438 3.542969 17.945312 9.601562 24.800781 3.949219 4.09375 6.230469 9.511719 6.398438 15.199219-.167969 5.6875-2.449219 11.105469-6.398438 15.199219-6.058593 6.855469-9.464843 15.652343-9.601562 24.800781zm0 0" fill="url(#c)"/><path d="m160.5 144h16c.167969-5.6875 2.449219-11.105469 6.398438-15.199219 12.789062-14.0625 12.789062-35.539062 0-49.601562-3.949219-4.09375-6.230469-9.511719-6.398438-15.199219.175781-5.683594 2.457031-11.101562 6.398438-15.199219 6.0625-6.855469 9.464843-15.652343 9.601562-24.800781h-16c-.175781 5.683594-2.457031 11.101562-6.398438 15.199219-6.0625 6.855469-9.464843 15.652343-9.601562 24.800781.136719 9.148438 3.542969 17.945312 9.601562 24.800781 3.949219 4.09375 6.230469 9.511719 6.398438 15.199219-.167969 5.6875-2.449219 11.105469-6.398438 15.199219-6.058593 6.855469-9.464843 15.652343-9.601562 24.800781zm0 0" fill="url(#d)"/></svg>