<svg height="480pt" viewBox="-56 0 480 480" width="480pt" xmlns="http://www.w3.org/2000/svg" xmlns:xlink="http://www.w3.org/1999/xlink"><linearGradient id="a"><stop offset="0" stop-color="#039bca"/><stop offset=".207" stop-color="#3a7ac4"/><stop offset=".598" stop-color="#9c3fb9"/><stop offset=".871" stop-color="#da1ab2"/><stop offset="1" stop-color="#f20baf"/></linearGradient><linearGradient id="b" gradientUnits="userSpaceOnUse" x1="-64" x2="443.104" xlink:href="#a" y1="352" y2="352"/><linearGradient id="c" gradientUnits="userSpaceOnUse" x1="-64" x2="443.104" xlink:href="#a" y1="320" y2="320"/><linearGradient id="d" gradientUnits="userSpaceOnUse" x1="-64" x2="443.104" xlink:href="#a" y1="60" y2="60"/><linearGradient id="e" gradientUnits="userSpaceOnUse" x1="-64" x2="443.104" xlink:href="#a" y1="84" y2="84"/><linearGradient id="f" gradientUnits="userSpaceOnUse" x1="-64" x2="443.104" xlink:href="#a" y1="200" y2="200"/><path d="m208 368h24c4.417969 0 8-3.582031 8-8v-24h-16v16h-16zm0 0" fill="url(#b)"/><path d="m40 448h8v24c0 4.417969 3.582031 8 8 8h256c4.417969 0 8-3.582031 8-8v-24h8c22.082031-.027344 39.972656-17.917969 40-40v-16c0-4.417969-3.582031-8-8-8h-96.207031c5.292969-6.882812 8.175781-15.316406 8.207031-24v-32h40c13.253906 0 24-10.746094 24-24v-88c0-13.253906-10.746094-24-24-24h-40v-32h-176v200c.03125 8.683594 2.914062 17.117188 8.207031 24h-96.207031c-4.417969 0-8 3.582031-8 8v16c.0273438 22.082031 17.917969 39.972656 40 40zm232-208h16v40h-16zm0 56h32v-72h-32v-16h40c4.417969 0 8 3.582031 8 8v88c0 4.417969-3.582031 8-8 8h-40zm32 168h-240v-16h240zm-192-256h64v-16h-64v-16h144v184c0 13.253906-10.746094 24-24 24h-96c-13.253906 0-24-10.746094-24-24zm-96 192h336v8c0 13.253906-10.746094 24-24 24h-288c-13.253906 0-24-10.746094-24-24zm0 0" fill="url(#c)"/><path d="m192 120h16c.175781-5.683594 2.457031-11.101562 6.398438-15.199219 6.0625-6.855469 9.46875-15.652343 9.601562-24.800781-.132812-9.148438-3.539062-17.945312-9.601562-24.800781-3.941407-4.097657-6.222657-9.515625-6.398438-15.199219.179688-5.683594 2.460938-11.101562 6.398438-15.199219 6.058593-6.855469 9.464843-15.652343 9.601562-24.800781h-16c-.179688 5.683594-2.460938 11.101562-6.398438 15.199219-6.058593 6.855469-9.464843 15.652343-9.601562 24.800781.132812 9.148438 3.539062 17.945312 9.601562 24.800781 3.941407 4.097657 6.222657 9.515625 6.398438 15.199219-.175781 5.683594-2.457031 11.101562-6.398438 15.199219-6.0625 6.855469-9.46875 15.652343-9.601562 24.800781zm0 0" fill="url(#d)"/><path d="m144 144h16c.175781-5.683594 2.457031-11.101562 6.398438-15.199219 12.816406-14.050781 12.816406-35.550781 0-49.601562-3.941407-4.097657-6.222657-9.515625-6.398438-15.199219.179688-5.683594 2.460938-11.101562 6.398438-15.199219 6.058593-6.855469 9.464843-15.652343 9.601562-24.800781h-16c-.179688 5.683594-2.460938 11.101562-6.398438 15.199219-6.058593 6.855469-9.464843 15.652343-9.601562 24.800781.132812 9.148438 3.539062 17.945312 9.601562 24.800781 3.941407 4.097657 6.222657 9.515625 6.398438 15.199219-.175781 5.683594-2.457031 11.101562-6.398438 15.199219-6.0625 6.855469-9.46875 15.652343-9.601562 24.800781zm0 0" fill="url(#e)"/><path d="m192 192h16v16h-16zm0 0" fill="url(#f)"/></svg>