<svg height="480pt" viewBox="-80 0 480 480.0003" width="480pt" xmlns="http://www.w3.org/2000/svg" xmlns:xlink="http://www.w3.org/1999/xlink"><linearGradient id="a"><stop offset="0" stop-color="#039bca"/><stop offset=".207" stop-color="#3a7ac4"/><stop offset=".598" stop-color="#9c3fb9"/><stop offset=".871" stop-color="#da1ab2"/><stop offset="1" stop-color="#f20baf"/></linearGradient><linearGradient id="b" gradientUnits="userSpaceOnUse" x1="-111.99985" x2="369.06415" xlink:href="#a" y1="168" y2="168"/><linearGradient id="c" gradientUnits="userSpaceOnUse" x1="-111.99985" x2="369.06415" xlink:href="#a" y1="96" y2="96"/><linearGradient id="d" gradientUnits="userSpaceOnUse" x1="-111.99985" x2="369.06415" xlink:href="#a" y1="104" y2="104"/><linearGradient id="e" gradientUnits="userSpaceOnUse" x1="-111.99985" x2="369.06415" xlink:href="#a" y1="240" y2="240"/><linearGradient id="f" gradientUnits="userSpaceOnUse" x1="-111.99985" x2="369.06415" xlink:href="#a" y1="344" y2="344"/><linearGradient id="g" gradientUnits="userSpaceOnUse" x1="-111.99985" x2="369.06415" xlink:href="#a" y1="408" y2="408"/><linearGradient id="h" gradientUnits="userSpaceOnUse" x1="-111.99985" x2="369.06415" xlink:href="#a" y1="336" y2="336"/><linearGradient id="i" gradientUnits="userSpaceOnUse" x1="-111.99985" x2="369.06415" xlink:href="#a" y1="24" y2="24"/><linearGradient id="j" gradientUnits="userSpaceOnUse" x1="-111.99985" x2="369.06415" xlink:href="#a" y1="8" y2="8"/><path d="m128 160h16v16h-16zm0 0" fill="url(#b)"/><path d="m48 96c0-13.253906-10.746094-24-24-24s-24 10.746094-24 24 10.746094 24 24 24 24-10.746094 24-24zm-32 0c0-4.417969 3.582031-8 8-8s8 3.582031 8 8-3.582031 8-8 8-8-3.582031-8-8zm0 0" fill="url(#c)"/><path d="m256 104c0 13.253906 10.746094 24 24 24s24-10.746094 24-24-10.746094-24-24-24-24 10.746094-24 24zm32 0c0 4.417969-3.582031 8-8 8s-8-3.582031-8-8 3.582031-8 8-8 8 3.582031 8 8zm0 0" fill="url(#d)"/><path d="m296 256h-41.246094l1.03125-33.070312c15.671875-3.898438 25.96875-18.886719 23.988282-34.914063-1.984376-16.027344-15.621094-28.054687-31.773438-28.015625h-8.359375c-1.808594-19.679688-10.214844-38.171875-23.855469-52.472656l69.871094-69.871094c3.121094-3.125 3.121094-8.1875 0-11.3125l-23.761719-23.757812c-3.121093-3.113282-8.171875-3.113282-11.292969 0l-79.953124 79.492187c-5-1.074219-10.085938-1.710937-15.199219-1.894531 2.945312-4.886719 4.519531-10.476563 4.550781-16.183594.066406-11.527344-6.109375-22.191406-16.140625-27.871094-10.03125-5.679687-22.351563-5.484375-32.203125.503906-1.703125-20.65625-18.929688-36.570312-39.65625-36.632812h-32v16c.027344 22.082031 17.917969 39.972656 40 40h17.136719c-.722657 2.605469-1.101563 5.296875-1.136719 8 .011719 10.703125 5.367188 20.691406 14.28125 26.617188-25.957031 13.984374-43.191406 40.027343-45.921875 69.382812h-8.359375c-16.152344-.039062-29.789062 11.988281-31.769531 28.015625-1.984375 16.027344 8.3125 31.015625 23.984375 34.914063l7.304687 233.824218c.347657 12.984375 11.011719 23.3125 24 23.246094h144.976563c12.992187.066406 23.652344-10.261719 24-23.246094l2.007812-64.753906h45.496094c13.253906 0 24-10.746094 24-24v-88c0-13.253906-10.746094-24-24-24zm-216-216c-13.253906 0-24-10.746094-24-24h16c13.253906 0 24 10.746094 24 24zm176.222656-20.464844 12.464844 12.464844-14.191406 14.191406c-6.800782-1.285156-13.527344-2.914062-20.160156-4.886718zm-34.6875 34.496094c5.28125 1.816406 11.855469 3.824219 19.457032 5.664062l-14.59375 14.570313c-6.355469-1.726563-12.574219-3.933594-18.597657-6.601563zm-25.742187 25.601562c5.75 2.914063 11.707031 5.40625 17.824219 7.457032l-9.871094 9.871094c-5.007813-3.652344-10.386719-6.761719-16.050782-9.273438zm-67.792969-31.632812c8.835938 0 16 7.164062 16 16s-7.164062 16-16 16-16-7.164062-16-16 7.164062-16 16-16zm24 48c23.285156.023438 45.117188 11.316406 58.59375 30.304688-10.265625 3.4375-21.570312 1.582031-30.195312-4.960938-16.917969-12.445312-39.964844-12.445312-56.886719 0-8.597657 6.53125-19.867188 8.394531-30.113281 4.976562 13.46875-19.003906 35.308593-30.300781 58.601562-30.320312zm-87.742188 128h15.742188v56c.023438 7.296875 3.386719 14.183594 9.128906 18.6875-4.230468 1.734375-8.210937 4.027344-11.832031 6.816406-3.042969 2.507813-6.550781 4.386719-10.320313 5.527344zm168.230469 232.246094c-.132812 4.324218-3.675781 7.757812-8 7.753906h-144.984375c-4.324218.003906-7.867187-3.429688-8-7.753906l-.246094-8.246094h161.488282zm.761719-24.246094h-162.496094l-1.3125-42.105469c6.074219 1.46875 12.308594 2.175781 18.558594 2.105469 12.425781.277344 24.703125-2.757812 35.566406-8.800781 8.632813-4.976563 18.472656-7.46875 28.433594-7.199219 9.960938-.265625 19.800781 2.226562 28.433594 7.199219 10.863281 6.042969 23.140625 9.082031 35.566406 8.800781 6.253906.066406 12.496094-.644531 18.574219-2.113281zm1.839844-58.984375c-15.757813 5.117187-32.914063 3.609375-47.539063-4.175781-10.855469-6.050782-23.125-9.101563-35.550781-8.839844-12.425781-.285156-24.707031 2.753906-35.566406 8.800781-8.632813 4.976563-18.472656 7.46875-28.433594 7.199219-6.488281.175781-12.953125-.835938-19.078125-2.976562l-1.433594-45.742188c7.03125-1.289062 13.632813-4.316406 19.199219-8.800781 9.957031-8.554688 24.667969-8.554688 34.625 0 15.558594 12.5625 37.777344 12.5625 53.335938 0 9.972656-8.554688 24.695312-8.554688 34.671874 0 7.496094 6.207031 16.949219 9.550781 26.679688 9.441406h.527344zm-139.089844-93.015625v-56h16v56c0 4.417969-3.582031 8-8 8s-8-3.582031-8-8zm141 31.800781c-.359375 0-.664062.121094-1.03125.121094-6.378906.121094-12.574219-2.164063-17.34375-6.402344-15.570312-12.566406-37.796875-12.566406-53.367188 0-9.957031 8.554688-24.667968 8.554688-34.625 0-3.609374-2.777343-7.570312-5.0625-11.785156-6.792969 5.757813-4.511718 9.128906-11.410156 9.152344-18.726562v-56h16v40c0 13.253906 10.746094 24 24 24s24-10.746094 24-24v-40h47.746094zm-77-47.800781v-40h16v40c0 4.417969-3.582031 8-8 8s-8-3.582031-8-8zm88-56h-192c-8.835938 0-16-7.164062-16-16s7.164062-16 16-16h56v-16h-31.527344c.742188-6.738281 2.441406-13.335938 5.046875-19.59375 5.808594 2.488281 12.082031 3.714844 18.402344 3.59375 10.253906.148438 20.261719-3.140625 28.429687-9.34375 11.535157-8.875 27.601563-8.875 39.136719 0 8.191407 6.214844 18.230469 9.503906 28.511719 9.34375 6.351562.125 12.660156-1.105469 18.496094-3.617188 2.601562 6.265626 4.296875 12.871094 5.03125 19.617188h-47.527344v16h72c8.835938 0 16 7.164062 16 16s-7.164062 16-16 16zm5.257812 96h18.742188v40h-20zm50.742188 64c0 4.417969-3.582031 8-8 8h-45l.503906-16h36.496094v-72h-34.246094l.503906-16h41.742188c4.417969 0 8 3.582031 8 8zm0 0" fill="url(#e)"/><path d="m88 336h16v16h-16zm0 0" fill="url(#f)"/><path d="m160 400h16v16h-16zm0 0" fill="url(#g)"/><path d="m184 328h16v16h-16zm0 0" fill="url(#h)"/><path d="m176 16h16v16h-16zm0 0" fill="url(#i)"/><path d="m136 0h16v16h-16zm0 0" fill="url(#j)"/></svg>