<svg height="480pt" viewBox="-20 0 480 480.00001" width="480pt" xmlns="http://www.w3.org/2000/svg" xmlns:xlink="http://www.w3.org/1999/xlink"><linearGradient id="a"><stop offset="0" stop-color="#039bca"/><stop offset=".207" stop-color="#3a7ac4"/><stop offset=".598" stop-color="#9c3fb9"/><stop offset=".871" stop-color="#da1ab2"/><stop offset="1" stop-color="#f20baf"/></linearGradient><linearGradient id="b" gradientUnits="userSpaceOnUse" x1="-23.999995" x2="457.064005" xlink:href="#a" y1="240" y2="240"/><linearGradient id="c" gradientUnits="userSpaceOnUse" x1="-23.999995" x2="457.064005" xlink:href="#a" y1="48" y2="48"/><linearGradient id="d" gradientUnits="userSpaceOnUse" x1="-23.999995" x2="457.064005" xlink:href="#a" y1="80" y2="80"/><linearGradient id="e" gradientUnits="userSpaceOnUse" x1="-23.999995" x2="457.064005" xlink:href="#a" y1="64" y2="64"/><linearGradient id="f" gradientUnits="userSpaceOnUse" x1="-23.999995" x2="457.064005" xlink:href="#a" y1="144" y2="144"/><linearGradient id="g" gradientUnits="userSpaceOnUse" x1="-23.999995" x2="457.064005" xlink:href="#a" y1="176" y2="176"/><linearGradient id="h" gradientUnits="userSpaceOnUse" x1="-23.999995" x2="457.064005" xlink:href="#a" y1="160" y2="160"/><linearGradient id="i" gradientUnits="userSpaceOnUse" x1="-23.999995" x2="457.064005" xlink:href="#a" y1="168" y2="168"/><linearGradient id="j" gradientUnits="userSpaceOnUse" x1="-23.999995" x2="457.064005" xlink:href="#a" y1="200" y2="200"/><linearGradient id="k" gradientUnits="userSpaceOnUse" x1="-23.999995" x2="457.064005" xlink:href="#a" y1="184" y2="184"/><linearGradient id="l" gradientUnits="userSpaceOnUse" x1="-23.999995" x2="457.064005" xlink:href="#a" y1="112" y2="112"/><linearGradient id="m" gradientUnits="userSpaceOnUse" x1="-23.999995" x2="457.064005" xlink:href="#a" y1="96" y2="96"/><path d="m328 472.449219 16-288c.125-2.199219-.664062-4.351563-2.179688-5.949219-1.511718-1.597656-3.617187-2.503906-5.820312-2.5h-16v-176h-8c-32.199219.0234375-62.238281 16.191406-80 43.046875v-35.046875c0-4.417969-3.582031-8-8-8h-112c-4.417969 0-8 3.582031-8 8v32c0 4.417969 3.582031 8 8 8h72v64.886719c-10.503906-10.800781-24.933594-16.890625-40-16.886719h-32c-4.417969 0-8 3.582031-8 8v32c-.003906 15.066406 6.085938 29.496094 16.886719 40h-24.886719c-2.203125-.003906-4.308594.902344-5.820312 2.5-1.515626 1.597656-2.304688 3.75-2.179688 5.949219l16 288c.238281 4.242187 3.75 7.558593 8 7.550781h208c4.25.007812 7.761719-3.308594 8-7.550781zm-24-456.050781v16.152343c-31.992188 4.007813-55.996094 31.207031-55.996094 63.449219s24.003906 59.441406 55.996094 63.449219v16.152343c-40.882812-4.105468-72.011719-38.511718-72.011719-79.601562s31.128907-75.496094 72.011719-79.601562zm0 94.554687v32.382813c-10.28125-1.792969-19.691406-6.898438-26.800781-14.535157zm-35.671875 4.550781c-5.769531-12.363281-5.769531-26.644531 0-39.007812l29.273437 19.503906zm8.871094-52.304687c7.109375-7.636719 16.519531-12.742188 26.800781-14.535157v32.382813zm-45.199219 85.753906c7.125 10.726563 16.320312 19.921875 27.046875 27.046875h-27.046875zm-112-116.953125v-16h96v160h-16v-136c0-4.417969-3.582031-8-8-8zm0 104v-24h24c22.082031.027344 39.972656 17.917969 40 40v12.6875l-34.34375-34.34375-11.3125 11.3125 34.34375 34.34375h-12.6875c-22.082031-.027344-39.972656-17.917969-40-40zm-13.769531 88-1.773438-32h223.085938l-1.773438 32zm.890625 16h52.878906l-12.800781 9.601562 9.601562 12.796876 29.863281-22.398438h37.335938l-12.800781 9.601562 9.601562 12.796876 29.863281-22.398438h29.335938l-12.800781 9.601562 9.601562 12.796876 29.863281-22.398438h18.214844l-2.222656 40h-36.257812c-12.6875 0-24.617188 6.03125-32.140626 16.246094-7.152343-10.5625-19.238281-16.703125-31.984374-16.246094h-12.546876c-12.734374-.441406-24.800781 5.695312-31.941406 16.246094-7.523437-10.214844-19.457031-16.246094-32.144531-16.246094h-36.296875zm100.878906 152v40h-16.40625l-5.832031-110.742188c-.347657-6.582031 2.027343-13.015624 6.566406-17.789062 4.539063-4.777344 10.84375-7.476562 17.433594-7.46875h12.542969c6.589843-.007812 12.890624 2.691406 17.429687 7.46875 4.539063 4.773438 6.914063 11.207031 6.570313 17.789062l-5.898438 110.742188h-16.40625v-40zm-97.769531-96h35.410156c12.777344-.015625 23.332031 9.980469 24 22.742188l5.925781 113.257812h-16.796875l-6.890625-41.3125-15.773437 2.625 6.453125 38.6875h-24.796875zm202.203125 168h-192.867188l-.886718-16h194.640624zm-22.992188-32 6.445313-38.6875-15.773438-2.625-6.890625 41.3125h-16.796875l5.972657-113.257812c.671874-12.761719 11.222656-22.757813 24-22.742188h35.410156l-7.5625 136zm0 0" fill="url(#b)"/><path d="m56 40h16v16h-16zm0 0" fill="url(#c)"/><path d="m56 72h16v16h-16zm0 0" fill="url(#d)"/><path d="m40 56h16v16h-16zm0 0" fill="url(#e)"/><path d="m72 56h16v16h-16zm0 0" fill="url(#e)"/><path d="m16 136h16v16h-16zm0 0" fill="url(#f)"/><path d="m16 168h16v16h-16zm0 0" fill="url(#g)"/><path d="m0 152h16v16h-16zm0 0" fill="url(#h)"/><path d="m32 152h16v16h-16zm0 0" fill="url(#h)"/><path d="m408 160h16v16h-16zm0 0" fill="url(#i)"/><path d="m408 192h16v16h-16zm0 0" fill="url(#j)"/><path d="m392 176h16v16h-16zm0 0" fill="url(#k)"/><path d="m424 176h16v16h-16zm0 0" fill="url(#k)"/><path d="m368 72h16v16h-16zm0 0" fill="url(#d)"/><path d="m368 104h16v16h-16zm0 0" fill="url(#l)"/><g fill="url(#m)"><path d="m352 88h16v16h-16zm0 0"/><path d="m384 88h16v16h-16zm0 0"/></g></svg>