<svg height="480pt" viewBox="-28 0 480 480.00008" width="480pt" xmlns="http://www.w3.org/2000/svg" xmlns:xlink="http://www.w3.org/1999/xlink"><linearGradient id="a"><stop offset="0" stop-color="#039bca"/><stop offset=".207" stop-color="#3a7ac4"/><stop offset=".598" stop-color="#9c3fb9"/><stop offset=".871" stop-color="#da1ab2"/><stop offset="1" stop-color="#f20baf"/></linearGradient><linearGradient id="b" gradientUnits="userSpaceOnUse" x1="-39.868979" x2="467.235021" xlink:href="#a" y1="296" y2="296"/><linearGradient id="c" gradientUnits="userSpaceOnUse" x1="-39.868979" x2="467.235021" xlink:href="#a" y1="336" y2="336"/><linearGradient id="d" gradientUnits="userSpaceOnUse" x1="-39.868979" x2="467.235021" xlink:href="#a" y1="248" y2="248"/><linearGradient id="e" gradientUnits="userSpaceOnUse" x1="-39.868979" x2="467.235021" xlink:href="#a" y1="240" y2="240"/><linearGradient id="f" gradientUnits="userSpaceOnUse" x1="-39.868979" x2="467.235021" xlink:href="#a" y1="360" y2="360"/><linearGradient id="g" gradientUnits="userSpaceOnUse" x1="-39.868979" x2="467.235021" xlink:href="#a" y1="328" y2="328"/><linearGradient id="h" gradientUnits="userSpaceOnUse" x1="-39.868979" x2="467.235021" xlink:href="#a" y1="415.416" y2="415.416"/><path d="m288.132812 328h16c30.910157-.039062 55.957032-25.089844 56-56 0-4.417969-3.582031-8-8-8h-16c-30.914062.039062-55.960937 25.089844-56 56 0 4.417969 3.578126 8 8 8zm48-48h7.199219c-3.824219 18.613281-20.199219 31.980469-39.199219 32h-7.203124c3.824218-18.613281 20.199218-31.980469 39.203124-32zm0 0" fill="url(#b)"/><path d="m248.132812 328h16v16h-16zm0 0" fill="url(#c)"/><path d="m280.132812 240h16v16h-16zm0 0" fill="url(#d)"/><path d="m344.132812 328h16v16h-16zm0 0" fill="url(#c)"/><path d="m104.132812 480c13.246094-.007812 26.363282-2.566406 38.644532-7.527344 4.515625 4.773438 10.785156 7.492188 17.355468 7.527344h208c13.253907 0 24-10.746094 24-24v-272c0-13.253906-10.746093-24-24-24v-16h8c4.417969 0 8-3.582031 8-8v-32c0-4.417969-3.582031-8-8-8h-8v-32c30.910157-.039062 55.957032-25.089844 56-56v-8h-40c-19.6875.03125-37.914062 10.398438-48 27.304688-10.089843-16.90625-28.316406-27.273438-48-27.304688h-40v8c-.003906 15.066406 6.085938 29.496094 16.886719 40h-27.128906l-14.175781-42.527344c-1.085938-3.265625-4.140625-5.46874975-7.582032-5.472656h-32c-2.570312 0-4.984374 1.238281-6.488281 3.324219-1.5 2.085937-1.910156 4.765625-1.097656 7.203125l12.488281 37.472656h-20.902344c-4.421874 0-8 3.582031-8 8v40h-8c-4.421874 0-8 3.582031-8 8v32c0 4.417969 3.578126 8 8 8h8v16c-13.257812 0-24 10.746094-24 24v93.089844c-39.082031-12.695313-81.972656-1.191406-109.453124 29.355468-27.480469 30.550782-34.398438 74.414063-17.652344 111.9375 16.746094 37.523438 54.015625 61.667969 95.105468 61.617188zm272-24c0 4.417969-3.582031 8-8 8h-208c-.234374 0-.441406-.078125-.664062-.097656 17.207031-10.867188 30.871094-26.523438 39.308594-45.046875 22.675781 36.332031 66.683594 53.238281 107.851562 41.433593 41.167969-11.804687 69.527344-49.460937 69.503906-92.289062zm-184-144c0-8.835938 7.160157-16 16-16 8.835938 0 16 7.164062 16 16s-7.164062 16-16 16c-8.839843 0-16-7.164062-16-16zm107.503907 99.671875c-12.363281 5.769531-26.648438 5.769531-39.007813 0l19.503906-29.273437zm-4.554688-35.671875h32.386719c-1.796875 10.277344-6.902344 19.691406-14.539062 26.800781zm-47.75 26.800781c-7.636719-7.109375-12.742187-16.523437-14.535156-26.800781h32.382813zm32.800781 29.199219c32.222657-.054688 59.390626-24.03125 63.445313-56h16.152344c-3.722657 36.648438-31.988281 66.019531-68.46875 71.140625s-71.742188-15.332031-85.410157-49.539063c1.511719-7.101562 2.273438-14.339843 2.28125-21.601562h8.550782c4.054687 31.96875 31.222656 55.945312 63.449218 56zm104-416h23.199219c-3.824219 18.613281-20.199219 31.980469-39.199219 32h-23.203124c3.824218-18.613281 20.199218-31.980469 39.203124-32zm-119.203124 0h23.203124c19 .019531 35.375 13.386719 39.199219 32h-23.199219c-19.003906-.019531-35.378906-13.386719-39.203124-32zm-54.566407 0 10.664063 32h-15.128906l-10.664063-32zm-34.230469 48h176v32h-176zm-16 48h208v16h-208zm192 32v16h-176v-16zm-200 40c0-4.417969 3.578126-8 8-8h208c4.417969 0 8 3.582031 8 8v16h-224zm96 72v8h-24c-22.082031-.027344-39.976562-17.917969-40-40v-8h24c22.078126.027344 39.972657 17.917969 40 40zm-96-40h16v8c.039063 30.910156 25.085938 55.960938 56 56h32c4.417969 0 8-3.582031 8-8v-16c0-15.066406-6.089843-29.496094-16.890624-40h128.890624v144h-169.363281c-.847656-5.609375-2.160156-11.140625-3.925781-16.535156 16.902344 2.941406 33.117188-7.96875 36.757812-24.734375 3.640626-16.765625-6.585937-33.421875-23.1875-37.753907-16.597656-4.335937-33.664062 5.195313-38.683593 21.597657-7.53125-7.511719-16.164063-13.832031-25.597657-18.742188zm-48 72c48.597657 0 88 39.398438 88 88s-39.402343 88-88 88c-48.601562 0-88-39.398438-88-88 .054688-48.578125 39.421876-87.941406 88-88zm0 0" fill="url(#e)"/><path d="m40.132812 352h16v16h-16zm0 0" fill="url(#f)"/><path d="m56.132812 320h16v16h-16zm0 0" fill="url(#g)"/><path d="m112.132812 448v-16c-56 0-63.785156-47.199219-64.089843-49.167969l-15.832031 2.304688c7.007812 38.089843 41.25 65.027343 79.921874 62.863281zm0 0" fill="url(#h)"/></svg>