<svg height="479pt" viewBox="0 0 479.97628 479" width="479pt" xmlns="http://www.w3.org/2000/svg" xmlns:xlink="http://www.w3.org/1999/xlink"><linearGradient id="a"><stop offset="0" stop-color="#039bca"/><stop offset=".207" stop-color="#3a7ac4"/><stop offset=".598" stop-color="#9c3fb9"/><stop offset=".871" stop-color="#da1ab2"/><stop offset="1" stop-color="#f20baf"/></linearGradient><linearGradient id="b" gradientUnits="userSpaceOnUse" x1="-7.996998" x2="477.371002" xlink:href="#a" y1="240.488154" y2="240.488154"/><linearGradient id="c" gradientUnits="userSpaceOnUse" x1="-7.996998" x2="477.371002" xlink:href="#a" y1="344.488154" y2="344.488154"/><linearGradient id="d" gradientUnits="userSpaceOnUse" x1="-7.996998" x2="477.371002" xlink:href="#a" y1="136.488154" y2="136.488154"/><linearGradient id="e" gradientUnits="userSpaceOnUse" x1="-7.996998" x2="477.371002" xlink:href="#a" y1="264.488154" y2="264.488154"/><linearGradient id="f" gradientUnits="userSpaceOnUse" x1="-7.996998" x2="477.371002" xlink:href="#a" y1="216.488154" y2="216.488154"/><linearGradient id="g" gradientUnits="userSpaceOnUse" x1="-7.996998" x2="477.371002" xlink:href="#a" y1="185.384154" y2="185.384154"/><linearGradient id="h" gradientUnits="userSpaceOnUse" x1="-7.996998" x2="477.371002" xlink:href="#a" y1="280.488154" y2="280.488154"/><linearGradient id="i" gradientUnits="userSpaceOnUse" x1="-7.996998" x2="477.371002" xlink:href="#a" y1="224.488154" y2="224.488154"/><linearGradient id="j" gradientUnits="userSpaceOnUse" x1="-7.996998" x2="477.371002" xlink:href="#a" y1="192.488154" y2="192.488154"/><path d="m240.003906.488281c-93.609375-.03125-178.691406 54.382813-217.917968 139.375-39.230469 84.992188-25.445313 185.042969 35.308593 256.257813-1.417969 9.613281 1.917969 19.316406 8.953125 26.023437 5.6875 5.867188 13.480469 9.226563 21.65625 9.335938 2.015625-.023438 4.023438-.261719 5.992188-.710938 83.082031 63.746094 197.910156 66.246094 283.683594 6.171875 85.777343-60.070312 122.6875-168.835937 91.183593-268.703125-31.503906-99.871093-124.140625-167.769531-228.859375-167.75zm-147.328125 414.078125c-5.296875 2.003906-11.277343.515625-15.015625-3.734375-4.089844-3.621093-5.632812-9.324219-3.921875-14.511719.777344-2.351562 2.125-4.472656 3.921875-6.175781l37.597656-37.601562c6.527344 7.273437 13.667969 13.964843 21.351563 20l-38.230469 38.234375c-1.59375 1.671875-3.542968 2.96875-5.703125 3.789062zm-4.671875-174.078125c0-83.949219 68.050782-152 152-152 83.945313 0 152 68.050781 152 152 0 83.945313-68.054687 152-152 152-83.910156-.09375-151.910156-68.089843-152-152zm152 224c-46.882812.152344-92.597656-14.628906-130.511718-42.207031.054687-.050781.109374-.082031.167968-.136719l40.152344-40.152343c73.519531 47.074218 170.800781 30.347656 224.375-38.582032 53.578125-68.925781 45.785156-167.324218-17.976562-226.957031-63.757813-59.632813-162.457032-60.839844-227.652344-2.777344-65.195313 58.058594-75.386719 156.238281-23.507813 226.453125l-38.703125 38.703125c-.480468.480469-.886718.992188-1.335937 1.488281-65.253907-81.660156-65.351563-197.59375-.238281-279.367187 65.113281-81.769531 178.125-107.636719 272.324218-62.328125 94.199219 45.308594 144.539063 149.742188 121.304688 251.65625-23.238282 101.914062-113.871094 174.207031-218.398438 174.207031zm0 0" fill="url(#b)"/><path d="m240.003906 432.488281v16c114.820313-.128906 207.871094-93.179687 208-208h-16c-.125 105.988281-86.011718 191.875-192 192zm0 0" fill="url(#c)"/><path d="m32.003906 240.488281h16c.121094-105.988281 86.011719-191.875 192-192v-16c-114.824218.128907-207.875 93.175781-208 208zm0 0" fill="url(#d)"/><path d="m240.003906 376.488281c75.109375 0 136-60.890625 136-136s-60.890625-136-136-136c-75.113281 0-136 60.890625-136 136 .082032 75.074219 60.921875 135.917969 136 136zm0-256c66.273438 0 120 53.726563 120 120 0 66.273438-53.726562 120-120 120-66.273437 0-120-53.726562-120-120 .074219-66.242187 53.757813-119.925781 120-120zm0 0" fill="url(#b)"/><path d="m32.003906 256.488281h16v16h-16zm0 0" fill="url(#e)"/><path d="m432.003906 208.488281h16v16h-16zm0 0" fill="url(#f)"/><path d="m240.003906 226.238281 37.34375-29.894531c5.875-5.765625 9.183594-13.652344 9.183594-21.882812 0-8.234376-3.308594-16.117188-9.183594-21.886719-10.363281-9.082031-25.324218-10.648438-37.34375-3.910157-12.019531-6.738281-26.984375-5.171874-37.34375 3.910157-5.941406 5.828125-9.257812 13.816406-9.183594 22.136719.074219 8.320312 3.53125 16.25 9.574219 21.96875zm-26.5625-61.839843c6.085938-5.234376 15.085938-5.234376 21.167969 0l5.394531 4.890624 5.390625-4.921874c6.085938-5.234376 15.082031-5.234376 21.167969 0 5.140625 5.539062 5.308594 14.050781.390625 19.785156l-26.949219 21.601562-26.5625-21.265625c-5.289062-5.664062-5.289062-14.457031 0-20.121093zm0 0" fill="url(#g)"/><path d="m168.003906 280.488281c.039063 30.910157 25.085938 55.960938 56 56h32c30.910156-.039062 55.960938-25.089843 56-56 0-4.417969-3.582031-8-8-8h-8.890625c10.800781-10.503906 16.894531-24.933593 16.890625-40 0-4.417969-3.582031-8-8-8h-16c-19.6875.03125-37.914062 10.398438-48 27.304688-10.089844-16.90625-28.3125-27.273438-48-27.304688h-16c-4.417968 0-8 3.582031-8 8-.003906 15.066407 6.085938 29.496094 16.886719 40h-8.886719c-4.417968 0-8 3.582031-8 8zm127.199219 8c-3.824219 18.613281-20.199219 31.980469-39.199219 32h-7.199218c3.824218-18.613281 20.195312-31.980469 39.199218-32zm-7.199219-48h7.199219c-3.824219 18.613281-20.199219 31.980469-39.199219 32h-7.199218c3.824218-18.613281 20.195312-31.980469 39.199218-32zm-48 48h8.886719c-3.429687 3.375-6.417969 7.171875-8.886719 11.304688-2.472656-4.132813-5.457031-7.929688-8.890625-11.304688zm-55.199218-48h7.199218c19 .019531 35.375 13.386719 39.199219 32h-7.199219c-19.003906-.019531-35.375-13.386719-39.199218-32zm7.199218 48c19 .019531 35.375 13.386719 39.199219 32h-7.199219c-19.003906-.019531-35.375-13.386719-39.199218-32zm0 0" fill="url(#h)"/><path d="m328.003906 216.488281h16v16h-16zm0 0" fill="url(#i)"/><path d="m312.003906 184.488281h16v16h-16zm0 0" fill="url(#j)"/><path d="m136.003906 232.488281h16v16h-16zm0 0" fill="url(#b)"/></svg>