<svg height="480pt" viewBox="0 0 480 480.00002" width="480pt" xmlns="http://www.w3.org/2000/svg" xmlns:xlink="http://www.w3.org/1999/xlink"><linearGradient id="a"><stop offset="0" stop-color="#039bca"/><stop offset=".207" stop-color="#3a7ac4"/><stop offset=".598" stop-color="#9c3fb9"/><stop offset=".871" stop-color="#da1ab2"/><stop offset="1" stop-color="#f20baf"/></linearGradient><linearGradient id="b" gradientUnits="userSpaceOnUse" x1="-23.99999" x2="457.06401" xlink:href="#a" y1="240.000001" y2="240.000001"/><linearGradient id="c" gradientUnits="userSpaceOnUse" x1="-23.99999" x2="457.06401" xlink:href="#a" y1="372.000001" y2="372.000001"/><linearGradient id="d" gradientUnits="userSpaceOnUse" x1="-23.99999" x2="457.06401" xlink:href="#a" y1="280.000001" y2="280.000001"/><linearGradient id="e" gradientUnits="userSpaceOnUse" x1="-23.99999" x2="457.06401" xlink:href="#a" y1="216.000001" y2="216.000001"/><linearGradient id="f" gradientUnits="userSpaceOnUse" x1="-23.99999" x2="457.06401" xlink:href="#a" y1="296.000001" y2="296.000001"/><linearGradient id="g" gradientUnits="userSpaceOnUse" x1="-23.99999" x2="457.06401" xlink:href="#a" y1="208.000001" y2="208.000001"/><linearGradient id="h" gradientUnits="userSpaceOnUse" x1="-23.99999" x2="457.06401" xlink:href="#a" y1="256.000001" y2="256.000001"/><linearGradient id="i" gradientUnits="userSpaceOnUse" x1="-23.99999" x2="457.06401" xlink:href="#a" y1="376.000001" y2="376.000001"/><path d="m456 160h-56v-48c0-4.417969-3.582031-8-8-8h-16v-24c0-4.417969-3.582031-8-8-8h-154.351562l-13.816407-65.648438c-.78125-3.703124-4.046875-6.351562-7.832031-6.351562h-88v16h81.503906l11.792969 56h-37.296875c-4.417969 0-8 3.582031-8 8v24h-16c-4.417969 0-8 3.582031-8 8v144c-19.6875.03125-37.910156 10.398438-48 27.304688-10.089844-16.90625-28.3125-27.273438-48-27.304688h-24c-4.417969 0-8 3.582031-8 8v16c.0429688 28.1875 21.019531 51.960938 48.984375 55.511719-20.921875 14.773437-33.25 38.878906-32.984375 64.488281 0 61.328125 61.183594 79.511719 61.800781 79.6875 1.4375.417969 2.960938.417969 4.398438 0 17.96875-6.066406 33.847656-17.101562 45.800781-31.824219v.136719c0 4.417969 3.582031 8 8 8h256c4.417969 0 8-3.582031 8-8v-80h56c13.253906 0 24-10.746094 24-24v-160c0-13.253906-10.746094-24-24-24zm-96-72v16h-139.617188l-3.367187-16zm-192 0h32.664062l3.367188 16h-36.03125zm-24 32h63.398438l6.746093 32h-70.144531zm-128 160v-8h16c22.082031.027344 39.972656 17.917969 40 40v8h-16c-22.082031-.027344-39.972656-17.917969-40-40zm64 183.585938c-9.824219-3.488282-48-19.851563-48-63.585938s38.207031-60.113281 48-63.585938c9.824219 3.488282 48 19.851563 48 63.585938s-38.207031 60.113281-48 63.585938zm48-111.449219c-4.882812-6.285157-10.597656-11.875-16.984375-16.625 5.890625-.746094 11.625-2.433594 16.984375-4.992188zm-24-32.136719h-16v-8c.027344-22.082031 17.917969-39.972656 40-40h16v8c-.027344 22.082031-17.917969 39.972656-40 40zm280 120h-240v-120.878906c10.257812-10.4375 16-24.488282 16-39.121094v-16c0-4.417969-3.582031-8-8-8h-8v-88h240zm0-288h-153.511719l-6.734375-32h160.246094zm16 56h32v112h-32zm64 136c0 4.417969-3.582031 8-8 8h-56v-16h48v-144h-48v-16h56c4.417969 0 8 3.582031 8 8zm0 0" fill="url(#b)"/><path d="m160 320v8c0 53.019531 42.980469 96 96 96s96-42.980469 96-96v-8zm143.335938 16c-1.792969 10.28125-6.894532 19.691406-14.535157 26.800781l-17.855469-26.800781zm-27.832032 35.671875c-12.363281 5.769531-26.644531 5.769531-39.007812 0l19.503906-29.273437zm-34.449218-35.671875-17.855469 26.800781c-7.640625-7.109375-12.742188-16.519531-14.535157-26.800781zm14.945312 72c-41.066406-.050781-75.441406-31.144531-79.601562-72h16.152343c4.007813 31.992188 31.207031 55.996094 63.449219 55.996094s59.441406-24.003906 63.449219-55.996094h16.152343c-4.160156 40.855469-38.535156 71.949219-79.601562 72zm0 0" fill="url(#c)"/><path d="m192 304c13.253906 0 24-10.746094 24-24s-10.746094-24-24-24-24 10.746094-24 24 10.746094 24 24 24zm0-32c4.417969 0 8 3.582031 8 8s-3.582031 8-8 8-8-3.582031-8-8 3.582031-8 8-8zm0 0" fill="url(#d)"/><path d="m320 240c13.253906 0 24-10.746094 24-24s-10.746094-24-24-24-24 10.746094-24 24 10.746094 24 24 24zm0-32c4.417969 0 8 3.582031 8 8s-3.582031 8-8 8-8-3.582031-8-8 3.582031-8 8-8zm0 0" fill="url(#e)"/><path d="m232 288h16v16h-16zm0 0" fill="url(#f)"/><path d="m264 200h16v16h-16zm0 0" fill="url(#g)"/><path d="m272 280h16c4.417969 0 8-3.582031 8-8-.027344-22.082031-17.917969-39.972656-40-40h-16c-4.417969 0-8 3.582031-8 8 .027344 22.082031 17.917969 39.972656 40 40zm-16-32c10.167969.011719 19.230469 6.417969 22.632812 16h-6.632812c-10.167969-.011719-19.230469-6.417969-22.632812-16zm0 0" fill="url(#h)"/><path d="m304 296c0 4.417969 3.582031 8 8 8h16c22.082031-.027344 39.972656-17.917969 40-40 0-4.417969-3.582031-8-8-8h-16c-22.082031.027344-39.972656 17.917969-40 40zm24-8h-6.632812c3.402343-9.582031 12.464843-15.988281 22.632812-16h6.632812c-3.402343 9.582031-12.464843 15.988281-22.632812 16zm0 0" fill="url(#d)"/><path d="m176 232h16c22.082031-.027344 39.972656-17.917969 40-40 0-4.417969-3.582031-8-8-8h-16c-22.082031.027344-39.972656 17.917969-40 40 0 4.417969 3.582031 8 8 8zm32-32h6.632812c-3.402343 9.582031-12.464843 15.988281-22.632812 16h-6.632812c3.402343-9.582031 12.464843-15.988281 22.632812-16zm0 0" fill="url(#g)"/><path d="m56 368h16v16h-16zm0 0" fill="url(#i)"/></svg>