<svg height="480pt" viewBox="-48 0 480 480.00051" width="480pt" xmlns="http://www.w3.org/2000/svg" xmlns:xlink="http://www.w3.org/1999/xlink"><linearGradient id="a"><stop offset="0" stop-color="#039bca"/><stop offset=".207" stop-color="#3a7ac4"/><stop offset=".598" stop-color="#9c3fb9"/><stop offset=".871" stop-color="#da1ab2"/><stop offset="1" stop-color="#f20baf"/></linearGradient><linearGradient id="b" gradientUnits="userSpaceOnUse" x1="-71.999745" x2="413.368255" xlink:href="#a" y1="240" y2="240"/><linearGradient id="c" gradientUnits="userSpaceOnUse" x1="-71.999745" x2="413.368255" xlink:href="#a" y1="120" y2="120"/><linearGradient id="d" gradientUnits="userSpaceOnUse" x1="-71.999745" x2="413.368255" xlink:href="#a" y1="152" y2="152"/><linearGradient id="e" gradientUnits="userSpaceOnUse" x1="-71.999745" x2="413.368255" xlink:href="#a" y1="136" y2="136"/><linearGradient id="f" gradientUnits="userSpaceOnUse" x1="-71.999745" x2="413.368255" xlink:href="#a" y1="56" y2="56"/><linearGradient id="g" gradientUnits="userSpaceOnUse" x1="-71.999745" x2="413.368255" xlink:href="#a" y1="88" y2="88"/><linearGradient id="h" gradientUnits="userSpaceOnUse" x1="-71.999745" x2="413.368255" xlink:href="#a" y1="72" y2="72"/><linearGradient id="i" gradientUnits="userSpaceOnUse" x1="-71.999745" x2="413.368255" xlink:href="#a" y1="24" y2="24"/><linearGradient id="j" gradientUnits="userSpaceOnUse" x1="-71.999745" x2="413.368255" xlink:href="#a" y1="40" y2="40"/><linearGradient id="k" gradientUnits="userSpaceOnUse" x1="-71.999745" x2="413.368255" xlink:href="#a" y1="16" y2="16"/><path d="m296 48c13.253906 0 24-10.746094 24-24s-10.746094-24-24-24-24 10.746094-24 24c.027344 3.769531.953125 7.480469 2.695312 10.824219l-26.253906 29.175781h-200.441406c-2.980469 0-5.714844 1.660156-7.089844 4.304688-1.378906 2.644531-1.171875 5.835937.539063 8.28125l110.550781 157.933593v200.535157l-59.574219 29.785156c-3.324219 1.65625-5.070312 5.382812-4.21875 8.996094.851563 3.613281 4.078125 6.167968 7.792969 6.164062h160c3.746094.042969 7.019531-2.519531 7.878906-6.167969.855469-3.644531-.929687-7.398437-4.300781-9.03125l-59.578125-29.746093v-200.535157l110.550781-157.933593c1.710938-2.445313 1.917969-5.636719.539063-8.28125-1.375-2.644532-4.109375-4.304688-7.089844-4.304688h-34.039062l16.304687-18.113281c3.058594 1.386719 6.375 2.105469 9.734375 2.113281zm0-32c4.417969 0 8 3.582031 8 8s-3.582031 8-8 8-8-3.582031-8-8 3.582031-8 8-8zm-232.632812 64h170.671874l-14.398437 16h-145.074219zm152.632812 40c0 4.417969-3.582031 8-8 8s-8-3.582031-8-8 3.582031-8 8-8 8 3.582031 8 8zm-24 32c0 8.835938-7.164062 16-16 16s-16-7.164062-16-16 7.164062-16 16-16 16 7.164062 16 16zm30.113281 312h-92.226562l32-16h28.226562zm-55.5625-236.585938-10.605469-15.199218c13.089844 3.863281 27.019532 3.863281 40.109376 0l-10.605469 15.199218c-.941407 1.34375-1.449219 2.945313-1.449219 4.585938v200h-16v-200c0-1.640625-.507812-3.242188-1.449219-4.585938zm55.363281-52.101562h-.058593c-10.480469 14.953125-27.59375 23.855469-45.855469 23.855469s-35.375-8.902344-45.855469-23.855469h-.054687l-44.320313-63.3125h99.703125c-.949218 2.5625-1.445312 5.269531-1.472656 8 0 .398438.097656.800781.121094 1.175781-2.644532-.746093-5.375-1.140625-8.121094-1.175781-17.671875 0-32 14.328125-32 32s14.328125 32 32 32 32-14.328125 32-32c-.035156-2.746094-.429688-5.476562-1.175781-8.121094.398437 0 .800781.121094 1.175781.121094 13.253906 0 24-10.746094 24-24-.027344-2.730469-.523438-5.4375-1.472656-8h35.703125zm66.71875-95.3125-11.199218 16h-36.273438l14.398438-16zm0 0" fill="url(#b)"/><path d="m16 112h16v16h-16zm0 0" fill="url(#c)"/><path d="m16 144h16v16h-16zm0 0" fill="url(#d)"/><path d="m0 128h16v16h-16zm0 0" fill="url(#e)"/><path d="m32 128h16v16h-16zm0 0" fill="url(#e)"/><path d="m352 48h16v16h-16zm0 0" fill="url(#f)"/><path d="m352 80h16v16h-16zm0 0" fill="url(#g)"/><path d="m336 64h16v16h-16zm0 0" fill="url(#h)"/><path d="m368 64h16v16h-16zm0 0" fill="url(#h)"/><path d="m192 16h16v16h-16zm0 0" fill="url(#i)"/><path d="m152 32h16v16h-16zm0 0" fill="url(#j)"/><path d="m112 8h16v16h-16zm0 0" fill="url(#k)"/></svg>