<svg height="480pt" viewBox="-143 0 479 480" width="480pt" xmlns="http://www.w3.org/2000/svg" xmlns:xlink="http://www.w3.org/1999/xlink"><linearGradient id="a"><stop offset="0" stop-color="#039bca"/><stop offset=".207" stop-color="#3a7ac4"/><stop offset=".598" stop-color="#9c3fb9"/><stop offset=".871" stop-color="#da1ab2"/><stop offset="1" stop-color="#f20baf"/></linearGradient><linearGradient id="b" gradientUnits="userSpaceOnUse" x1="-142.16751" x2="338.89649" xlink:href="#a" y1="240" y2="240"/><linearGradient id="c" gradientUnits="userSpaceOnUse" x1="-142.16751" x2="338.89649" xlink:href="#a" y1="396" y2="396"/><linearGradient id="d" gradientUnits="userSpaceOnUse" x1="-142.16751" x2="338.89649" xlink:href="#a" y1="440" y2="440"/><path d="m193.832031 472.320312c.335938-8.222656 7.785157-202.296874-16.398437-274.847656-12.238282-35.390625-20.039063-72.164062-23.234375-109.472656h7.632812c4.417969 0 8-3.582031 8-8v-32c0-4.417969-3.582031-8-8-8h-24.589843l6.671874-24h49.917969v-16h-56c-3.589843 0-6.742187 2.394531-7.703125 5.855469l-9.496094 34.144531h-86.800781c-4.417969 0-8 3.582031-8 8v32c0 4.417969 3.582031 8 8 8h7.632813c-3.183594 37.308594-10.976563 74.078125-23.199219 109.472656-24.210937 72.550782-16.761719 266.625-16.433594 274.847656.171875 4.292969 3.703125 7.683594 8 7.679688h176c4.296875.003906 7.828125-3.386719 8-7.679688zm-31.589843-269.792968c7.628906 27.90625 12.128906 56.570312 13.414062 85.472656h-107.304688l55.5625-200h14.222657c3.136719 39.046875 11.234375 77.53125 24.105469 114.527344zm-120.410157-146.527344h112v16h-112zm-8.40625 146.527344c12.867188-36.996094 20.964844-75.480469 24.101563-114.527344h49.785156l-55.558594 200h-31.746094c1.28125-28.902344 5.78125-57.570312 13.417969-85.472656zm144.671875 261.472656h-160.527344c-.714843-23.121094-2.402343-94.398438 1.390626-160h157.742187c3.769531 65.601562 2.105469 136.878906 1.394531 160zm0 0" fill="url(#b)"/><path d="m145.832031 432h-16v16h32v-104h-16zm0 0" fill="url(#c)"/><path d="m33.832031 432h16v16h-16zm0 0" fill="url(#d)"/></svg>