<svg height="480pt" viewBox="-120 0 480 480.00421" width="480pt" xmlns="http://www.w3.org/2000/svg" xmlns:xlink="http://www.w3.org/1999/xlink"><linearGradient id="a"><stop offset="0" stop-color="#039bca"/><stop offset=".207" stop-color="#3a7ac4"/><stop offset=".598" stop-color="#9c3fb9"/><stop offset=".871" stop-color="#da1ab2"/><stop offset="1" stop-color="#f20baf"/></linearGradient><linearGradient id="b" gradientUnits="userSpaceOnUse" x1="-143.994315" x2="337.069685" xlink:href="#a" y1="240.003729" y2="240.003729"/><linearGradient id="c" gradientUnits="userSpaceOnUse" x1="-143.994315" x2="337.069685" xlink:href="#a" y1="136.003729" y2="136.003729"/><linearGradient id="d" gradientUnits="userSpaceOnUse" x1="-143.994315" x2="337.069685" xlink:href="#a" y1="144.003729" y2="144.003729"/><path d="m165.820312 68.445312c-3.152343-2.214843-6.792968-3.628906-10.613281-4.121093 1.148438-5.308594.636719-10.839844-1.464843-15.847657-4.789063-9.152343-13.859376-15.28125-24.136719-16.3125-32.414063-6.480468-33.601563-23.609374-33.601563-24.160156.003906-2.773437-1.433594-5.347656-3.789062-6.808594-2.359375-1.457031-5.304688-1.589843-7.785156-.351562l-16 8c-18.007813 9.007812-28.257813 20.425781-30.398438 33.945312-1.066406 7.238282.0625 14.628907 3.246094 21.214844h-1.273438c-13.253906 0-24 10.746094-24 24v8h-8c-2.410156 0-4.691406 1.085938-6.214844 2.957032-1.519531 1.871093-2.113281 4.332031-1.617187 6.691406l63.832031 303.152344v26.886718l-44.4375 29.601563c-2.988281 1.9375-4.335937 5.613281-3.308594 9.023437 1.03125 3.40625 4.1875 5.726563 7.746094 5.6875h144c3.527344 0 6.636719-2.304687 7.660156-5.679687 1.023438-3.375-.285156-7.019531-3.21875-8.976563l-44.441406-29.625v-26.917968l11.898438-56.511719c0-.121094.070312-.21875.101562-.335938l51.867188-246.328125c.488281-2.363281-.113282-4.820312-1.640625-6.6875-1.527344-1.867187-3.8125-2.945312-6.226563-2.9375h-6.558594l13.335938-80h49.222656v-15.99999975h-62.773437zm-112-23.097656c1.320313-8.152344 8.65625-15.617187 21.800782-22.183594l7.34375-3.671874c4.425781 9.671874 15.554687 22.757812 43.511718 28.351562 4.738282.953125 10.761719 2.953125 12.625 7.070312.972657 2.972657.867188 6.1875-.296874 9.089844h-79.101563c-4.351563-5.199218-6.476563-11.902344-5.921875-18.65625zm-21.816406 42.65625c0-4.417968 3.582032-8 8-8h112c4.421875 0 8 3.582032 8 8v8h-128zm109.601563 376h-91.199219l24-16h43.199219zm-63.078125-64-4.121094-19.496094c6.929688 2.460938 14.246094 3.644532 21.597656 3.496094 7.449219.125 14.84375-1.265625 21.738282-4.089844l-4.234376 20.089844zm33.476562 16v16h-32v-16zm12.1875-66.695312c-1.867187 8.214844-6.953125 18.695312-28.1875 18.695312-22.199218 0-25.925781-8.847656-27.671875-17.152344h-.175781l-27.648438-131.28125c3.769532-35.070312 9.488282-58.832031 13.730469-66.398437 2.976563 5.320313 5.847657 22.398437 2.527344 73.75-.3125 4.898437-.59375 9.234375-.75 12.738281-.800781 17.902344-1.066406 59.785156 13.949219 61.839844.613281.082031 1.230468.125 1.847656.128906 8.296875 0 14.136719-9.113281 24-51.808594 6.257812-27.121093 11.203125-44.945312 14.890625-56.632812-.335937 3.640625-.722656 7.578125-1.113281 11.585938-7.199219 74.445312-6.121094 80.796874 3.351562 83.109374 8.496094 2.097657 12.410156-7.664062 14.496094-12.894531 5.703125-14.257812 14.59375-33.847656 23.550781-52.9375zm40.542969-192.59375c-9.382813 18.976562-28.847656 58.800781-42.855469 90.402344 1.015625-13.914063 2.558594-29.777344 3.628906-40.847657 1.394532-14.320312 2.496094-25.65625 2.496094-30.265625 0-15.199218-5.710937-19.082031-10.503906-19.625-7.566406-.894531-16.132812-1.847656-37.292969 89.824219-2.816406 12.207031-5.144531 20.800781-7.007812 26.808594-.976563-10.855469-1.371094-21.75-1.195313-32.648438.160156-3.414062.433594-7.648437.738282-12.414062 2.894531-44.800781 3.910156-82.570313-13.152344-91.105469-3.648438-1.894531-8.007813-1.816406-11.585938.207031-2.902344 1.601563-10.199218 5.601563-16.933594 37.601563l-13.207031-62.648438h156.285157zm0 0" fill="url(#b)"/><path d="m136.003906 128.003906h16v16h-16zm0 0" fill="url(#c)"/><path d="m88.003906 136.003906h16v16h-16zm0 0" fill="url(#d)"/></svg>