<svg height="479pt" viewBox="-83 0 479 479.99563" width="479pt" xmlns="http://www.w3.org/2000/svg" xmlns:xlink="http://www.w3.org/1999/xlink"><linearGradient id="a"><stop offset="0" stop-color="#039bca"/><stop offset=".207" stop-color="#3a7ac4"/><stop offset=".598" stop-color="#9c3fb9"/><stop offset=".871" stop-color="#da1ab2"/><stop offset="1" stop-color="#f20baf"/></linearGradient><linearGradient id="b" gradientUnits="userSpaceOnUse" x1="-103.502185" x2="379.753815" xlink:href="#a" y1="127.995628" y2="127.995628"/><linearGradient id="c" gradientUnits="userSpaceOnUse" x1="-103.502185" x2="379.753815" xlink:href="#a" y1="207.995628" y2="207.995628"/><linearGradient id="d" gradientUnits="userSpaceOnUse" x1="-103.502185" x2="379.753815" xlink:href="#a" y1="263.995628" y2="263.995628"/><linearGradient id="e" gradientUnits="userSpaceOnUse" x1="-103.502185" x2="379.753815" xlink:href="#a" y1="199.995628" y2="199.995628"/><linearGradient id="f" gradientUnits="userSpaceOnUse" x1="-103.502185" x2="379.753815" xlink:href="#a" y1="279.995628" y2="279.995628"/><linearGradient id="g" gradientUnits="userSpaceOnUse" x1="-103.502185" x2="379.753815" xlink:href="#a" y1="287.995628" y2="287.995628"/><linearGradient id="h" gradientUnits="userSpaceOnUse" x1="-103.502185" x2="379.753815" xlink:href="#a" y1="239.995628" y2="239.995628"/><path d="m56.496094 119.996094h16v16h-16zm0 0" fill="url(#b)"/><path d="m184.496094 231.996094c13.257812 0 24-10.746094 24-24s-10.742188-24-24-24c-13.253906 0-24 10.746094-24 24s10.746094 24 24 24zm0-32c4.421875 0 8 3.582031 8 8 0 4.417968-3.578125 8-8 8-4.417969 0-8-3.582032-8-8 0-4.417969 3.582031-8 8-8zm0 0" fill="url(#c)"/><path d="m136.496094 231.996094c-17.671875 0-32 14.328125-32 32s14.328125 32 32 32c17.675781 0 32-14.328125 32-32s-14.324219-32-32-32zm0 48c-8.835938 0-16-7.164063-16-16 0-8.835938 7.164062-16 16-16 8.839844 0 16 7.164062 16 16 0 8.835937-7.160156 16-16 16zm0 0" fill="url(#d)"/><path d="m80.496094 183.996094c-13.253906 0-24 10.746094-24 24s10.746094 24 24 24c13.257812 0 24-10.746094 24-24s-10.742188-24-24-24zm0 32c-4.417969 0-8-3.582032-8-8 0-4.417969 3.582031-8 8-8 4.421875 0 8 3.582031 8 8 0 4.417968-3.578125 8-8 8zm0 0" fill="url(#c)"/><path d="m128.496094 191.996094h16v16h-16zm0 0" fill="url(#e)"/><path d="m192.496094 271.996094h16v16h-16zm0 0" fill="url(#f)"/><path d="m56.496094 279.996094h16v16h-16zm0 0" fill="url(#g)"/><path d="m256.496094 175.996094h-15.476563c-.328125-24.550782-.523437-51.082032-.523437-80v-8c0-17.671875-14.324219-32-32-32-2.5 0-4.996094.304687-7.421875.910156-7.480469-10.578125-19.621094-16.882812-32.578125-16.910156.039062-17.792969-11.707032-33.464844-28.796875-38.417969-17.089844-4.953125-35.394531 2.003906-44.882813 17.058594-12.296875-4.71875-26.132812-3.074219-36.984375 4.390625-10.855469 7.464844-17.335937 19.796875-17.335937 32.96875v1.007812c-14.121094 3.664063-23.984375 16.402344-24 30.992188v8c0 267.070312-15.652344 341.550781-15.8125 342.273437-.125.566407-.183594 1.144531-.1875 1.726563v32c0 4.417968 3.582031 8 8 8h240c4.421875 0 8-3.582032 8-8v-32c0-.582032-.0625-1.160156-.183594-1.726563-3.140625-17.964843-5.335938-36.082031-6.582031-54.273437h6.765625c30.914062-.039063 55.960937-25.089844 56-56v-96c-.039063-30.910156-25.085938-55.960938-56-56zm-208.496094-104c.273438.039062 1.082031.128906 1.355469.136718 2.542969.136719 4.992187-.976562 6.558593-2.984374 1.585938-1.980469 2.136719-4.597657 1.488282-7.046876-2.574219-9.648437 1.113281-19.878906 9.25-25.660156 8.140625-5.785156 19.011718-5.910156 27.277344-.308594 2.058593 1.390626 4.648437 1.75 7.003906.964844 2.359375-.785156 4.21875-2.617187 5.035156-4.964844 2.582031-8.226562 9.398438-14.421874 17.835938-16.203124 8.433593-1.78125 17.175781 1.128906 22.859374 7.609374 5.6875 6.480469 7.433594 15.523438 4.570313 23.65625-.917969 2.855469-.160156 5.984376 1.957031 8.105469 2.121094 2.121094 5.25 2.875 8.105469 1.957031 11.527344-3.964843 24.164063 1.613282 29 12.800782.910156 1.992187 2.597656 3.523437 4.664063 4.238281 2.070312.71875 4.34375.550781 6.289062-.453125 4.941406-2.511719 10.832031-2.285156 15.566406.597656 4.738282 2.882813 7.644532 8.011719 7.679688 13.554688h-192c-.003906-8.648438 6.863281-15.734375 15.503906-16zm-15.503906 32h192c0 16.800781.105468 32.734375.242187 48h-192.488281c.136719-15.265625.246094-31.199219.246094-48zm-12.316406 312h108.316406v-16h-106.566406c3.953124-39.28125 8.800781-110.648438 10.160156-232h192.800781c1.390625 121.351562 6.207031 192.71875 10.160156 232h-50.554687v16h52.320312c.800782 6.785156 1.554688 12.054687 2.160156 16h-220.957031c.605469-3.945313 1.34375-9.214844 2.160157-16zm220.316406 48h-224v-16h224zm1.386718-240h14.613282c4.421875 0 8 3.582031 8 8v96c0 4.417968-3.578125 8-8 8h-10.222656c-1.734376-29.375-3.320313-66.25-4.390626-112zm54.613282 104c-.023438 22.078125-17.917969 39.972656-40 40h-8.070313c-.382812-5-.761719-10.402344-1.144531-16h9.214844c13.257812 0 24-10.746094 24-24v-96c0-13.253906-10.742188-24-24-24h-14.957032c-.105468-5.199219-.203124-10.585938-.289062-16h15.246094c22.082031.027344 39.976562 17.917968 40 40zm0 0" fill="url(#h)"/></svg>