<svg height="480pt" viewBox="-8 0 480 480" width="480pt" xmlns="http://www.w3.org/2000/svg" xmlns:xlink="http://www.w3.org/1999/xlink"><linearGradient id="a"><stop offset="0" stop-color="#039bca"/><stop offset=".207" stop-color="#3a7ac4"/><stop offset=".598" stop-color="#9c3fb9"/><stop offset=".871" stop-color="#da1ab2"/><stop offset="1" stop-color="#f20baf"/></linearGradient><linearGradient id="b" gradientUnits="userSpaceOnUse" x1="-16" x2="491.104" xlink:href="#a" y1="240" y2="240"/><linearGradient id="c" gradientUnits="userSpaceOnUse" x1="-16" x2="491.104" xlink:href="#a" y1="416" y2="416"/><linearGradient id="d" gradientUnits="userSpaceOnUse" x1="-16" x2="491.104" xlink:href="#a" y1="428" y2="428"/><linearGradient id="e" gradientUnits="userSpaceOnUse" x1="-16" x2="491.104" xlink:href="#a" y1="440" y2="440"/><linearGradient id="f" gradientUnits="userSpaceOnUse" x1="-16" x2="491.104" xlink:href="#a" y1="304" y2="304"/><linearGradient id="g" gradientUnits="userSpaceOnUse" x1="-16" x2="491.104" xlink:href="#a" y1="368" y2="368"/><path d="m457.679688 240.175781-25.679688-5.496093v-18.679688c-.035156-19.132812-13.609375-35.5625-32.390625-39.199219l-7.152344-128.800781h7.542969c4.417969 0 8-3.582031 8-8v-16c0-13.253906-10.746094-24-24-24h-64c-13.253906 0-24 10.746094-24 24v16c0 4.417969 3.582031 8 8 8h7.542969l-7.152344 128.800781c-13.269531 2.597657-24.332031 11.726563-29.398437 24.261719l-18.992188-4.101562v-172.960938c0-4.417969-3.582031-8-8-8h-32c-4.417969 0-8 3.582031-8 8v172.960938l-18.992188 4.070312c-5.078124-12.523438-16.136718-21.640625-29.398437-24.230469l-7.152344-128.800781h7.542969c4.417969 0 8-3.582031 8-8v-16c0-13.253906-10.746094-24-24-24h-64c-13.253906 0-24 10.746094-24 24v16c0 4.417969 3.582031 8 8 8h7.542969l-7.152344 128.800781c-18.78125 3.636719-32.355469 20.066407-32.390625 39.199219v18.679688l-25.679688 5.496093c-3.6875.792969-6.320312 4.050781-6.320312 7.824219v224c0 4.417969 3.582031 8 8 8h448c4.417969 0 8-3.582031 8-8v-224c0-3.773438-2.632812-7.03125-6.320312-7.824219zm-145.679688-216.175781c0-4.417969 3.582031-8 8-8h64c4.417969 0 8 3.582031 8 8v8h-80zm66.207031 56 3.5625 64h-59.539062l3.5625-64zm-51.527343-16 .886718-16h48.867188l.886718 16zm56 96 .886718 16h-63.109375l.886719-16zm-70.679688 32h80c13.253906 0 24 10.746094 24 24v15.246094l-124.992188-26.78125c4.203126-7.671875 12.246094-12.445313 20.992188-12.464844zm-88-160h16v161.535156l-6.320312-1.359375c-1.109376-.230469-2.25-.230469-3.359376 0l-6.320312 1.359375zm-152-8c0-4.417969 3.582031-8 8-8h64c4.417969 0 8 3.582031 8 8v8h-80zm66.207031 56 3.5625 64h-59.539062l3.5625-64zm-51.527343-16 .886718-16h48.867188l.886718 16zm56 96 .886718 16h-63.109375l.886719-16zm-94.679688 56c0-13.253906 10.746094-24 24-24h80c8.746094.019531 16.789062 4.792969 20.992188 12.464844l-124.992188 26.78125zm400 248h-432v-209.527344l216-46.296875 216 46.296875zm0 0" fill="url(#b)"/><path d="m48 384h-16v64h48v-16h-32zm0 0" fill="url(#c)"/><path d="m384 448h48v-40h-16v24h-32zm0 0" fill="url(#d)"/><path d="m352 432h16v16h-16zm0 0" fill="url(#e)"/><path d="m64 344h336v-80h-336zm16-64h304v48h-304zm0 0" fill="url(#f)"/><g fill="url(#g)"><path d="m64 360h80v16h-80zm0 0"/><path d="m224 360h16v16h-16zm0 0"/><path d="m352 360h48v16h-48zm0 0"/></g></svg>