<svg height="480pt" viewBox="0 -80 480 480" width="480pt" xmlns="http://www.w3.org/2000/svg" xmlns:xlink="http://www.w3.org/1999/xlink"><linearGradient id="a"><stop offset="0" stop-color="#039bca"/><stop offset=".207" stop-color="#3a7ac4"/><stop offset=".598" stop-color="#9c3fb9"/><stop offset=".871" stop-color="#da1ab2"/><stop offset="1" stop-color="#f20baf"/></linearGradient><linearGradient id="b" gradientUnits="userSpaceOnUse" x1="-24" x2="457.064" xlink:href="#a" y1="160" y2="160"/><linearGradient id="c" gradientUnits="userSpaceOnUse" x1="-24" x2="457.064" xlink:href="#a" y1="204" y2="204"/><linearGradient id="d" gradientUnits="userSpaceOnUse" x1="-24" x2="457.064" xlink:href="#a" y1="112" y2="112"/><linearGradient id="e" gradientUnits="userSpaceOnUse" x1="-24" x2="457.064" xlink:href="#a" y1="128" y2="128"/><linearGradient id="f" gradientUnits="userSpaceOnUse" x1="-24" x2="457.064" xlink:href="#a" y1="216" y2="216"/><linearGradient id="g" gradientUnits="userSpaceOnUse" x1="-24" x2="457.064" xlink:href="#a" y1="88" y2="88"/><linearGradient id="h" gradientUnits="userSpaceOnUse" x1="-24" x2="457.064" xlink:href="#a" y1="104" y2="104"/><linearGradient id="i" gradientUnits="userSpaceOnUse" x1="-24" x2="457.064" xlink:href="#a" y1="184" y2="184"/><linearGradient id="j" gradientUnits="userSpaceOnUse" x1="-24" x2="457.064" xlink:href="#a" y1="208" y2="208"/><path d="m472 272h-15.488281l7.488281-119.503906c.136719-2.207032-.644531-4.371094-2.160156-5.980469s-3.628906-2.519531-5.839844-2.515625h-112c-2.210938-.003906-4.324219.90625-5.839844 2.515625s-2.296875 3.773437-2.160156 5.980469l7.488281 119.503906h-95.578125c41.660156-23.882812 65.035156-70.335938 59.386719-118.023438l-17.289063-146.914062c-.472656-4.027344-3.886718-7.0625-7.945312-7.0625h-240c-4.054688 0-7.46875 3.035156-7.941406 7.0625l-17.320313 146.914062c-5.636719 47.695313 17.75 94.148438 59.421875 118.023438h-68.222656c-4.417969 0-8 3.582031-8 8v32c0 4.417969 3.582031 8 8 8h464c4.417969 0 8-3.582031 8-8v-32c0-4.417969-3.582031-8-8-8zm-24.511719-112-5 80h-84.976562l-5-80zm-6 96-1 16h-80.976562l-1-16zm-392.3125-240h225.777344l1.878906 16h-229.535156zm9.121094 221.113281c-19.734375-22.199219-29.046875-51.765625-25.601563-81.265625l12.71875-107.847656h233.304688l12.6875 107.847656c3.472656 29.496094-5.832031 59.066406-25.570312 81.261719-19.734376 22.195313-48.015626 34.890625-77.714844 34.890625h-52.121094c-29.691406-.015625-57.960938-12.710938-77.703125-34.886719zm405.703125 66.886719h-448v-16h448zm0 0" fill="url(#b)"/><path d="m242.0625 160v-8h-192v8c0 53.019531 42.980469 96 96 96s96-42.980469 96-96zm-48.664062 8c-1.789063 10.277344-6.886719 19.6875-14.519532 26.800781l-17.863281-26.800781zm-27.796876 35.671875c-12.363281 5.769531-26.648437 5.769531-39.007812 0l19.46875-29.273437zm-34.480468-35.671875-17.875 26.800781c-7.628906-7.113281-12.726563-16.523437-14.511719-26.800781zm-64.65625 0h16.160156c3.992188 32 31.191406 56.019531 63.441406 56.019531s59.453125-24.019531 63.445313-56.019531h16.152343c-4.105468 40.882812-38.511718 72.011719-79.601562 72.011719-41.085938 0-75.496094-31.128907-79.597656-72.011719zm0 0" fill="url(#c)"/><path d="m82.0625 136c13.257812 0 24-10.746094 24-24s-10.742188-24-24-24c-13.253906 0-24 10.746094-24 24s10.746094 24 24 24zm0-32c4.417969 0 8 3.582031 8 8s-3.582031 8-8 8-8-3.582031-8-8 3.582031-8 8-8zm0 0" fill="url(#d)"/><path d="m122.0625 120h16v16h-16zm0 0" fill="url(#e)"/><path d="m242.0625 208h16v16h-16zm0 0" fill="url(#f)"/><path d="m162.0625 112h16c4.417969 0 8-3.582031 8-8-.023438-22.082031-17.917969-39.972656-40-40h-16c-4.417969 0-8 3.582031-8 8 .027344 22.082031 17.921875 39.972656 40 40zm-16-32c10.167969.011719 19.230469 6.417969 22.632812 16h-6.632812c-10.167969 0-19.234375-6.410156-22.621094-16zm0 0" fill="url(#g)"/><path d="m202.0625 144h16c21.300781-.054688 38.8125-16.804688 39.808594-38.078125 9.429687-8.195313 11.011718-22.246094 3.640625-32.332031-7.371094-10.089844-21.238281-12.847656-31.910157-6.351563-10.671874 6.5-14.585937 20.085938-9.007812 31.265625-15.867188 5.65625-26.476562 20.652344-26.53125 37.496094 0 4.417969 3.582031 8 8 8zm40-64c4.417969 0 8 3.582031 8 8s-3.582031 8-8 8-8-3.582031-8-8 3.582031-8 8-8zm-8 32h6.632812c-3.402343 9.582031-12.464843 15.988281-22.632812 16h-6.621094c3.386719-9.589844 12.453125-16 22.621094-16zm0 0" fill="url(#h)"/><path d="m416 176h16v16h-16zm0 0" fill="url(#i)"/><path d="m384 200h16v16h-16zm0 0" fill="url(#j)"/></svg>