<svg height="480pt" viewBox="-76 0 480 480" width="480pt" xmlns="http://www.w3.org/2000/svg" xmlns:xlink="http://www.w3.org/1999/xlink"><linearGradient id="a"><stop offset="0" stop-color="#039bca"/><stop offset=".207" stop-color="#3a7ac4"/><stop offset=".598" stop-color="#9c3fb9"/><stop offset=".871" stop-color="#da1ab2"/><stop offset="1" stop-color="#f20baf"/></linearGradient><linearGradient id="b" gradientUnits="userSpaceOnUse" x1="-56" x2="427.256" xlink:href="#a" y1="300" y2="300"/><linearGradient id="c" gradientUnits="userSpaceOnUse" x1="-56" x2="427.256" xlink:href="#a" y1="232" y2="232"/><linearGradient id="d" gradientUnits="userSpaceOnUse" x1="-56" x2="427.256" xlink:href="#a" y1="384" y2="384"/><linearGradient id="e" gradientUnits="userSpaceOnUse" x1="-56" x2="427.256" xlink:href="#a" y1="288" y2="288"/><linearGradient id="f" gradientUnits="userSpaceOnUse" x1="-56" x2="427.256" xlink:href="#a" y1="320" y2="320"/><linearGradient id="g" gradientUnits="userSpaceOnUse" x1="-56" x2="427.256" xlink:href="#a" y1="240" y2="240"/><linearGradient id="h" gradientUnits="userSpaceOnUse" x1="-56" x2="427.256" xlink:href="#a" y1="472" y2="472"/><path d="m117.472656 423.59375c38.210938 11.207031 78.84375 11.207031 117.054688 0 3.078125-1.019531 5.242187-3.792969 5.472656-7.027344l16-224c.230469-3.226562-1.503906-6.277344-4.398438-7.726562-23.734374-10.878906-49.496093-16.617188-75.601562-16.839844-26.097656.226562-51.851562 5.964844-75.574219 16.839844-2.898437 1.449218-4.632812 4.5-4.402343 7.726562l16 224c.230468 3.230469 2.378906 6 5.449218 7.027344zm58.527344-239.59375c21.835938.296875 43.421875 4.71875 63.617188 13.03125l-15.203126 212.800781c-31.761718 8.199219-65.082031 8.199219-96.847656 0l-15.199218-212.800781c20.199218-8.316406 41.789062-12.738281 63.632812-13.03125zm0 0" fill="url(#b)"/><path d="m152 264h48c4.417969 0 8-3.582031 8-8v-48c0-4.417969-3.582031-8-8-8h-48c-4.417969 0-8 3.582031-8 8v48c0 4.417969 3.582031 8 8 8zm8-48h32v32h-32zm0 0" fill="url(#c)"/><path d="m144 376h16v16h-16zm0 0" fill="url(#d)"/><path d="m192 376h16v16h-16zm0 0" fill="url(#d)"/><path d="m152 280h48v16h-48zm0 0" fill="url(#e)"/><path d="m144 312h64v16h-64zm0 0" fill="url(#f)"/><path d="m32 480h264v-16h-23.320312l23.320312-287.398438c1.359375-18.113281-13.601562-33.847656-28.800781-39.953124l-51.199219-21.921876v-50.726562h16c4.417969 0 8-3.582031 8-8v-48c0-4.417969-3.582031-8-8-8h-112c-4.417969 0-8 3.582031-8 8v48c0 4.417969 3.582031 8 8 8h16v50.726562l-50.96875 21.839844c-15.445312 6.1875-30.398438 21.921875-29.007812 40.082032l23.296874 287.351562h-47.320312zm96-432v-32h24v16h16v-16h16v16h16v-16h24v32zm76.847656 79.351562 7.039063 3.015626c-22.730469 4.320312-46.113281 3.867187-68.664063-1.335938l3.929688-1.679688c2.941406-1.261718 4.847656-4.152343 4.847656-7.351562v-56h48v56c0 3.199219 1.90625 6.089844 4.847656 7.351562zm-132.847656 48.046876c-.753906-9.949219 9.070312-20 19.199219-24.046876l28.722656-12.3125c19.730469 6.75 40.433594 10.234376 61.285156 10.3125 18.574219-.035156 37.027344-2.976562 54.6875-8.71875l25.183594 10.800782c9.921875 4 19.746094 14.015625 18.992187 23.917968l-23.445312 288.648438h-161.25zm0 0" fill="url(#g)"/><g fill="url(#h)"><path d="m312 464h16v16h-16zm0 0"/><path d="m0 464h16v16h-16zm0 0"/></g></svg>