<svg height="479pt" viewBox="-34 0 479 479.98234" width="479pt" xmlns="http://www.w3.org/2000/svg" xmlns:xlink="http://www.w3.org/1999/xlink"><linearGradient id="a"><stop offset="0" stop-color="#039bca"/><stop offset=".207" stop-color="#3a7ac4"/><stop offset=".598" stop-color="#9c3fb9"/><stop offset=".871" stop-color="#da1ab2"/><stop offset="1" stop-color="#f20baf"/></linearGradient><linearGradient id="b" gradientUnits="userSpaceOnUse" x1="-23.507197" x2="459.748803" xlink:href="#a" y1="223.982342" y2="223.982342"/><linearGradient id="c" gradientUnits="userSpaceOnUse" x1="-23.507197" x2="459.748803" xlink:href="#a" y1="231.982342" y2="231.982342"/><linearGradient id="d" gradientUnits="userSpaceOnUse" x1="-23.507197" x2="459.748803" xlink:href="#a" y1="207.982342" y2="207.982342"/><linearGradient id="e" gradientUnits="userSpaceOnUse" x1="-23.507197" x2="459.748803" xlink:href="#a" y1="239.982342" y2="239.982342"/><path d="m296.492188 215.980469h16v16h-16zm0 0" fill="url(#b)"/><path d="m240.492188 223.980469h16v16h-16zm0 0" fill="url(#c)"/><path d="m192.492188 199.980469h16v16h-16zm0 0" fill="url(#d)"/><path d="m80.492188 223.980469h16v16h-16zm0 0" fill="url(#c)"/><path d="m406.148438 74.316406c-8.800782-8.796875-26.472657-8.796875-43.3125 8l-50.34375 50.355469-8.800782-8.800781-7.460937-29.855469c-.355469-1.40625-1.082031-2.6875-2.105469-3.714844l-14.398438-14.398437-7.472656-29.863282c-.351562-1.40625-1.082031-2.6875-2.105468-3.710937l-24-24c-2.695313-2.699219-6.921876-3.117187-10.09375-1l-24 16c-.753907.5-1.417969 1.128906-1.960938 1.855469l-24.257812 32.359375-15.109376 22.671875-7.472656 4.976562-92.863281-92.863281c-3.121094-3.105469-8.160156-3.105469-11.28125 0l-24.242187 24c-1.503907 1.5-2.351563 3.539063-2.351563 5.667969 0 2.125.847656 4.164062 2.351563 5.667968l2.402343 2.398438-18.375 18.246094c-1.507812 1.503906-2.351562 3.539062-2.351562 5.664062s.84375 4.164063 2.351562 5.664063l81.199219 81.257812-1.800781 3.609375-22.238281 14.824219c-.4375.292969-.84375.628906-1.21875 1l-16 16c-.609376.605469-1.117188 1.308594-1.503907 2.078125l-14.800781 29.601562-13.597656 6.796876c-2.089844 1.046874-3.617188 2.953124-4.183594 5.21875l-6.496094 25.957031h-9.761718c-2.402344 0-4.675782 1.082031-6.199219 2.941406-1.519531 1.859375-2.121094 4.304687-1.640625 6.660156l7.90625 39.425781c5.613281 44.902344 42.550781 94.972657 86.558594 94.972657h41.375v32h-16c-22.078126.027343-39.972657 17.921875-40 40 0 4.421875 3.582031 8 8 8h192c4.417968 0 8-3.578125 8-8-.027344-22.078125-17.917969-39.972657-40-40h-16v-32h41.375c44 0 80.945312-50.070313 86.464843-94.398438l8-40c.480469-2.355469-.121093-4.800781-1.640625-6.660156-1.519531-1.859375-3.796875-2.941406-6.199218-2.941406h-16v-48c0-1.578125-.46875-3.121094-1.34375-4.4375l-12.359376-18.535157 67.359376-67.371093c6.429687-6.027344 11-13.769531 13.175781-22.308594 2.007812-7.429687.054687-15.367187-5.175781-21.011719zm-335.320313 24.691406c2.730469-6.070312 4.925781-12.363281 6.570313-18.808593l21.03125 21.03125c-2.445313 5.699219-5.585938 11.074219-9.351563 16zm43.679687-29.929687c-2.441406 5.699219-5.578124 11.070313-9.335937 16l-18.277344-18.246094c2.71875-6.070312 4.910157-12.363281 6.550781-18.808593zm18.402344 43.761719-16.363281-16.371094c3.8125-4.808594 7.140625-9.980469 9.929687-15.445312l23.199219 23.199218-1.207031.800782zm-68.191406-93.601563 15.109375 15.144531c-1.054687 6.871094-2.8125 13.621094-5.238281 20.136719l-22.753906-22.539062zm-16.160156 32.121094 15.238281 15.199219c-1.070313 6.863281-2.835937 13.597656-5.273437 20.105468l-22.695313-22.683593zm51.863281 77.238281c3.820313-4.796875 7.15625-9.964844 9.949219-15.421875l7.28125 7.277344-.734375.371094c-1.550781.773437-2.808594 2.03125-3.585938 3.582031l-5.695312 11.40625zm8.511719 38.039063c1.152344-.777344 2.089844-1.835938 2.71875-3.078125l14.800781-29.601563 29.601563-14.796875c.296874-.152344.585937-.320312.863281-.503906l24-16c.875-.585938 1.628906-1.339844 2.214843-2.21875l15.761719-23.65625 23.199219-30.902344 17.40625-11.601562 17.792969 17.792968 7.464843 29.855469c.351563 1.40625 1.078126 2.6875 2.101563 3.710938l14.402344 14.402343 7.464843 29.855469c.351563 1.40625 1.078126 2.6875 2.101563 3.710938l14.289063 14.289062 4.289062 21.421875c-12.882812 2.324219-24.863281 8.203125-34.578125 16.976563-8.136719 8.128906-16.589844 12.105469-44.6875-16-14.863281-14.863281-28.695313-15.445313-37.734375-13.328125-15.335938 4.761718-27.203125 16.988281-31.503906 32.457031-2.921875 8.910156-10.621094 15.414063-19.898438 16.800781-8.769531 1.0625-17.34375-3.144531-21.863281-10.734375-6.136719-8.667969-14.621094-15.402343-24.457031-19.410156zm-84.601563 135.746093-6.078125-30.402343h32.398438c2.898437 8.554687 4.675781 17.449219 5.28125 26.457031.160156 2.175781.335937 4.289062.625 6.570312 5.453125 42.34375 21.429687 65.824219 36.878906 78.847657-33.976562-1.359375-64.304688-43.265625-69.105469-81.472657zm215.664063 81.597657h-20.566406c15.488281-13.007813 31.535156-36.527344 37-78.972657.289062-2.289062.464843-4.394531.625-6.570312.59375-9.011719 2.367187-17.902344 5.269531-26.457031h39.335937c-2.464844 8.207031-3.992187 16.667969-4.550781 25.21875-.144531 1.910156-.289063 3.757812-.550781 5.757812-9.480469 73.632813-52.953125 80.578125-56.5625 81.023438zm1.113281-86.78125c-.144531 1.910156-.289063 3.757812-.550781 5.757812-7.203125 55.855469-33.984375 73.320313-48.066406 78.707031v-109.683593h53.167968c-2.464844 8.207031-3.992187 16.667969-4.550781 25.21875zm-64.617187 84.457031c-14.113282-5.394531-40.871094-22.867188-48.0625-78.699219-.265626-2-.410157-3.847656-.554688-5.757812-.558594-8.550781-2.085938-17.011719-4.550781-25.21875h53.167969zm-64.558594-83.203125c.160156 2.175781.335937 4.28125.625 6.570313 5.460937 42.445312 21.511718 65.96875 37 78.976562h-20.570313c-3.609375-.449219-47.078125-7.394531-56.558593-81.027344-.265626-2-.410157-3.847656-.554688-5.757812-.558594-8.554688-2.085938-17.019532-4.550781-25.234375h39.335937c2.902344 8.554687 4.675782 17.445312 5.273438 26.457031zm159.191406 165.527344h-173.265625c3.402344-9.578125 12.464844-15.984375 22.632813-16h128c10.167968.015625 19.230468 6.421875 22.632812 16zm-54.632812-32h-64v-32h64zm128.066406-128.988281c-4.707032 37.597656-35.035156 79.503906-69.011719 80.863281 15.449219-13.023438 31.425781-36.503907 36.882813-78.847657.289062-2.28125.464843-4.394531.625-6.570312.605468-9.007812 2.378906-17.902344 5.277343-26.457031h32.410157zm-309.816406-47.011719 4.613281-18.484375 12.714843-6.355469c1.550782-.773437 2.808594-2.03125 3.582032-3.582031l15.417968-30.839844 8.992188-8.992188c10.238281 2.472657 19.332031 8.359376 25.773438 16.695313 7.820312 12.78125 22.457031 19.730469 37.304687 17.710937 15.332031-2.207031 28.09375-12.910156 32.9375-27.621093 2.574219-10.199219 10.082031-18.433594 20-21.9375 8.632813-1.082031 17.21875 2.339843 22.742187 9.0625 14.558594 14.570312 41.664063 41.601562 67.3125 16 7.488282-6.523438 16.617188-10.882813 26.398438-12.605469l.113281.519531c.203125 1.023438.605469 2 1.183594 2.871094l14.664063 21.960937v45.597657zm360.949218-164c-1.5625 5.527343-4.628906 10.511719-8.855468 14.402343l-61.429688 61.429688-4.234375-21.140625 52.976563-52.976563c9.222656-9.242187 18.097656-10.601562 20.6875-8 1.261718 1.84375 1.578124 4.171876.855468 6.285157zm0 0" fill="url(#e)"/></svg>