<svg height="479pt" viewBox="-87 0 479 479.95937" width="479pt" xmlns="http://www.w3.org/2000/svg" xmlns:xlink="http://www.w3.org/1999/xlink"><linearGradient id="a"><stop offset="0" stop-color="#039bca"/><stop offset=".207" stop-color="#3a7ac4"/><stop offset=".598" stop-color="#9c3fb9"/><stop offset=".871" stop-color="#da1ab2"/><stop offset="1" stop-color="#f20baf"/></linearGradient><linearGradient id="b" gradientUnits="userSpaceOnUse" x1="-79.520315" x2="427.583685" xlink:href="#a" y1="239.982885" y2="239.982885"/><linearGradient id="c" gradientUnits="userSpaceOnUse" x1="-79.520315" x2="427.583685" xlink:href="#a" y1="135.958885" y2="135.958885"/><linearGradient id="d" gradientUnits="userSpaceOnUse" x1="-79.520315" x2="427.583685" xlink:href="#a" y1="143.958885" y2="143.958885"/><linearGradient id="e" gradientUnits="userSpaceOnUse" x1="-79.520315" x2="427.583685" xlink:href="#a" y1="31.958885" y2="31.958885"/><linearGradient id="f" gradientUnits="userSpaceOnUse" x1="-79.520315" x2="427.583685" xlink:href="#a" y1="79.958885" y2="79.958885"/><path d="m97.6875 69.207031-9.367188-46.847656c-.761718-3.726563-4.039062-6.402344-7.839843-6.402344h-48v16h41.445312l12.800781 64h-6.246093c-2.414063 0-4.695313 1.085938-6.214844 2.960938-1.519531 1.871093-2.113281 4.328125-1.617187 6.6875l63.832031 303.152343v26.890626l-44.441407 29.597656c-2.988281 1.9375-4.335937 5.617187-3.304687 9.023437 1.027344 3.410157 4.183594 5.726563 7.746094 5.6875h144c3.523437.003907 6.636719-2.304687 7.65625-5.679687 1.023437-3.375-.285157-7.019532-3.21875-8.972656l-44.4375-29.625v-26.921876l63.832031-303.199218c.480469-2.351563-.121094-4.796875-1.640625-6.65625s-3.789063-2.941406-6.191406-2.945313h-8v-8c-.039063-12.285156-9.371094-22.550781-21.601563-23.757812 3.273438-6.644531 4.460938-14.125 3.410156-21.457031-2.203124-13.519532-12.441406-24.933594-30.449218-33.941407l-16-8c-2.441406-1.183593-5.3125-1.046875-7.632813.359375-2.34375 1.410156-3.824219 3.898438-3.941406 6.628906 0 .722657-1.195313 17.851563-33.601563 24.328126-10.273437 1.039062-19.339843 7.167968-24.128906 16.3125-2.066406 4.902343-2.597656 10.320312-1.519531 15.527343h-.535156c-5.382813.023438-10.597657 1.875-14.792969 5.25zm116.390625 394.75h-91.199219l24-16h43.199219zm-63.078125-64-8.199219-38.933593c1.292969-.746094 2.554688-1.496094 3.78125-2.25 13.164063-9.085938 30.574219-9.085938 43.738281 0 1.246094.769531 2.539063 1.539062 3.878907 2.304687l-8.214844 38.878906zm33.480469 16v16h-32v-16zm13.175781-71.429687c-17.789062-11.417969-40.59375-11.441406-58.402344-.054688l-7.308594-34.738281c5.152344-1.65625 10.0625-4 14.589844-6.96875 13.167969-9.074219 30.570313-9.074219 43.738282 0 4.550781 2.984375 9.484374 5.335937 14.671874 6.992187zm10.640625-50.519532c-3.386719-1.269531-6.621094-2.910156-9.648437-4.890624-18.292969-12.21875-42.148438-12.21875-60.441407 0-3 1.953124-6.203125 3.578124-9.550781 4.851562l-8-38.179688c9.328125-.566406 18.320312-3.6875 26-9.015624 13.117188-9.085938 30.496094-9.085938 43.617188 0 7.703124 5.34375 16.734374 8.464843 26.09375 9.015624zm11.382813-54.050781c-7.5625.035157-14.9375-2.34375-21.054688-6.789062-18.269531-12.246094-42.125-12.246094-60.394531 0-6.085938 4.429687-13.421875 6.808593-20.949219 6.789062l-8.53125-40.484375c2.546875.335938 5.109375.507813 7.671875.519532 10.785156.210937 21.363281-3.003907 30.203125-9.183594 13.117188-9.089844 30.496094-9.089844 43.613281 0 8.855469 6.175781 19.445313 9.378906 30.242188 9.148437 2.59375-.007812 5.1875-.1875 7.757812-.535156zm26.945312-128-14.824219 70.402344c-3.667969 1.125-7.488281 1.664063-11.320312 1.597656-7.828125.199219-15.5-2.195312-21.824219-6.8125-18.269531-12.246093-42.125-12.246093-60.390625 0-6.328125 4.625-14.007813 7.019531-21.84375 6.8125-3.8125.066407-7.609375-.476562-11.253906-1.597656l-14.832031-70.402344zm-117.457031-57.039062c1.839843-4.160157 7.894531-6.160157 12.648437-7.117188 27.960938-5.601562 39.085938-18.691406 43.503906-28.355469l7.34375 3.671876c13.105469 6.546874 20.429688 13.984374 21.792969 22.097656.585938 6.785156-1.542969 13.523437-5.914062 18.742187h-79.101563c-1.144531-2.886719-1.242187-6.085937-.273437-9.039062zm95.3125 25.039062c4.417969 0 8 3.582031 8 8v8h-128v-8c0-4.417969 3.582031-8 8-8zm0 0" fill="url(#b)"/><path d="m112.480469 127.957031h16v16h-16zm0 0" fill="url(#c)"/><path d="m160.480469 135.957031h16v16h-16zm0 0" fill="url(#d)"/><path d="m208.480469 127.957031h16v16h-16zm0 0" fill="url(#c)"/><path d="m280.480469 55.957031c13.253906 0 24-10.742187 24-24 0-13.253906-10.746094-24-24-24-13.253907 0-24 10.746094-24 24 0 13.257813 10.746093 24 24 24zm0-32c4.417969 0 8 3.582031 8 8 0 4.421875-3.582031 8-8 8s-8-3.578125-8-8c0-4.417969 3.582031-8 8-8zm0 0" fill="url(#e)"/><path d="m.480469 79.957031c0 13.257813 10.746093 24 24 24 13.253906 0 24-10.742187 24-24 0-13.253906-10.746094-24-24-24-13.253907 0-24 10.746094-24 24zm32 0c0 4.421875-3.582031 8-8 8s-8-3.578125-8-8c0-4.417969 3.582031-8 8-8s8 3.582031 8 8zm0 0" fill="url(#f)"/></svg>