<svg height="480pt" viewBox="0 0 480 480" width="480pt" xmlns="http://www.w3.org/2000/svg" xmlns:xlink="http://www.w3.org/1999/xlink"><linearGradient id="a"><stop offset="0" stop-color="#039bca"/><stop offset=".207" stop-color="#3a7ac4"/><stop offset=".598" stop-color="#9c3fb9"/><stop offset=".871" stop-color="#da1ab2"/><stop offset="1" stop-color="#f20baf"/></linearGradient><linearGradient id="b" gradientUnits="userSpaceOnUse" x1="-8" x2="477.368" xlink:href="#a" y1="296" y2="296"/><linearGradient id="c" gradientUnits="userSpaceOnUse" x1="-8" x2="477.368" xlink:href="#a" y1="248" y2="248"/><linearGradient id="d" gradientUnits="userSpaceOnUse" x1="-8" x2="477.368" xlink:href="#a" y1="60" y2="60"/><linearGradient id="e" gradientUnits="userSpaceOnUse" x1="-8" x2="477.368" xlink:href="#a" y1="92" y2="92"/><path d="m472 416h-157.558594c16.546875-11.613281 28.601563-28.558594 34.152344-48h35.40625c30.914062-.035156 55.964844-25.085938 56-56v-48c-.035156-30.914062-25.085938-55.964844-56-56h-32v-24c0-4.417969-3.582031-8-8-8h-146.847656c16.96875-13.636719 26.84375-34.230469 26.847656-56 0-4.417969-3.582031-8-8-8h-32c-26.996094.035156-51.703125 15.167969-64 39.199219-12.296875-24.03125-37.003906-39.164063-64-39.199219h-32c-4.417969 0-8 3.582031-8 8 .042969 39.746094 32.253906 71.957031 72 72h24v152c.03125 28.699219 14.066406 55.574219 37.601562 72h-141.601562c-4.417969 0-8 3.582031-8 8v48c0 4.417969 3.582031 8 8 8h464c4.417969 0 8-3.582031 8-8v-48c0-4.417969-3.582031-8-8-8zm-120-160h32c4.417969 0 8 3.582031 8 8v48c0 4.417969-3.582031 8-8 8h-32zm0 88v-8h32c13.253906 0 24-10.746094 24-24v-48c0-13.253906-10.746094-24-24-24h-32v-16h32c22.082031.027344 39.972656 17.917969 40 40v48c-.027344 22.082031-17.917969 39.972656-40 40h-32.40625c.238281-2.640625.40625-5.296875.40625-8zm-264-168c-27.824219-.035156-51.417969-20.464844-55.433594-48h23.433594c27.824219.035156 51.417969 20.464844 55.433594 48zm248 16v16h-152v-16zm-152-64h23.433594c-4.015625 27.535156-27.609375 47.964844-55.433594 48h-23.433594c4.015625-27.535156 27.609375-47.964844 55.433594-48zm-56 64h40v16h-40zm48 65.601562 16 10.664063v51.734375h-32v-51.71875zm-48 86.398438v-120h40v19.71875l-20.441406 13.601562c-2.230469 1.488282-3.566406 3.996094-3.558594 6.679688v64c0 4.417969 3.582031 8 8 8h48c4.417969 0 8-3.582031 8-8v-64c0-2.675781-1.335938-5.171875-3.558594-6.65625l-20.441406-13.625v-19.71875h152v16h-64v16h64v88c-.042969 39.746094-32.253906 71.957031-72 72h-64c-39.746094-.042969-71.957031-32.253906-72-72zm336 120h-448v-32h448zm0 0" fill="url(#b)"/><path d="m240 240h16v16h-16zm0 0" fill="url(#c)"/><path d="m288 0h-16c-.179688 5.683594-2.460938 11.101562-6.398438 15.199219-6.058593 6.855469-9.464843 15.652343-9.601562 24.800781.132812 9.148438 3.539062 17.945312 9.601562 24.800781 3.941407 4.097657 6.222657 9.515625 6.398438 15.199219-.175781 5.683594-2.457031 11.101562-6.398438 15.199219-6.0625 6.855469-9.46875 15.652343-9.601562 24.800781h16c.175781-5.683594 2.457031-11.101562 6.398438-15.199219 6.0625-6.855469 9.46875-15.652343 9.601562-24.800781-.132812-9.148438-3.539062-17.945312-9.601562-24.800781-3.941407-4.097657-6.222657-9.515625-6.398438-15.199219.179688-5.683594 2.460938-11.101562 6.398438-15.199219 6.058593-6.855469 9.464843-15.652343 9.601562-24.800781zm0 0" fill="url(#d)"/><path d="m336 32h-16c-.179688 5.683594-2.460938 11.101562-6.398438 15.199219-6.058593 6.855469-9.464843 15.652343-9.601562 24.800781.132812 9.148438 3.539062 17.945312 9.601562 24.800781 3.941407 4.097657 6.222657 9.515625 6.398438 15.199219-.175781 5.683594-2.457031 11.101562-6.398438 15.199219-6.0625 6.855469-9.46875 15.652343-9.601562 24.800781h16c.175781-5.683594 2.457031-11.101562 6.398438-15.199219 12.816406-14.050781 12.816406-35.550781 0-49.601562-3.941407-4.097657-6.222657-9.515625-6.398438-15.199219.179688-5.683594 2.460938-11.101562 6.398438-15.199219 6.058593-6.855469 9.464843-15.652343 9.601562-24.800781zm0 0" fill="url(#e)"/></svg>