<svg height="480pt" viewBox="-80 0 480 480" width="480pt" xmlns="http://www.w3.org/2000/svg" xmlns:xlink="http://www.w3.org/1999/xlink"><linearGradient id="a"><stop offset="0" stop-color="#039bca"/><stop offset=".207" stop-color="#3a7ac4"/><stop offset=".598" stop-color="#9c3fb9"/><stop offset=".871" stop-color="#da1ab2"/><stop offset="1" stop-color="#f20baf"/></linearGradient><linearGradient id="b" gradientUnits="userSpaceOnUse" x1="-103.997296" x2="397.202704" xlink:href="#a" y1="288" y2="288"/><linearGradient id="c" gradientUnits="userSpaceOnUse" x1="-103.997296" x2="397.202704" xlink:href="#a" y1="40" y2="40"/><linearGradient id="d" gradientUnits="userSpaceOnUse" x1="-103.997296" x2="397.202704" xlink:href="#a" y1="280" y2="280"/><linearGradient id="e" gradientUnits="userSpaceOnUse" x1="-103.997296" x2="397.202704" xlink:href="#a" y1="264" y2="264"/><linearGradient id="f" gradientUnits="userSpaceOnUse" x1="-103.997296" x2="397.202704" xlink:href="#a" y1="200" y2="200"/><linearGradient id="g" gradientUnits="userSpaceOnUse" x1="-103.997296" x2="397.202704" xlink:href="#a" y1="408" y2="408"/><path d="m128.003906 160h-8v-16h16v-16h-16v-16h16v-16h-128v16h16v16h-16v16h16v16h-8c-4.339844 0-7.886718 3.457031-8 7.792969l-7.99999975 304c-.05859375 2.15625.76171875 4.246093 2.26562475 5.789062 1.507813 1.546875 3.574219 2.417969 5.734375 2.417969h128c2.15625 0 4.222656-.871094 5.730469-2.417969 1.507813-1.542969 2.324219-3.632812 2.269531-5.789062l-8-304c-.113281-4.335938-3.664062-7.792969-8-7.792969zm-88-48h64v16h-64zm0 32h64v16h-64zm-23.785156 320 .414062-16h79.371094v-16h-78.945312l6.734375-256h96.417969l.414062 16h-32.621094v16h33.046875l6.734375 256zm0 0" fill="url(#b)"/><path d="m61.121094 19.472656c6.5625-4.351562 10.617187-11.605468 10.882812-19.472656h-16c0 2.566406-1.023437 3.769531-5.121094 7.199219-6.550781 4.34375-10.605468 11.585937-10.878906 19.441406.265625 7.867187 4.3125 15.121094 10.871094 19.480469 3.878906 3.199218 5.128906 4.496094 5.128906 7.199218 0 2.703126-1.25 4-5.121094 7.199219-6.558593 4.355469-10.609374 11.613281-10.878906 19.480469h16c0-2.703125 1.246094-4 5.125-7.199219 6.558594-4.359375 10.609375-11.613281 10.875-19.480469-.261718-7.875-4.316406-15.132812-10.882812-19.488281-3.871094-3.199219-5.117188-4.496093-5.117188-7.199219 0-2.5625 1.023438-3.761718 5.117188-7.160156zm0 0" fill="url(#c)"/><path d="m101.121094 19.472656c6.5625-4.351562 10.617187-11.605468 10.882812-19.472656h-16c0 2.566406-1.023437 3.769531-5.121094 7.199219-6.550781 4.34375-10.605468 11.585937-10.878906 19.441406.265625 7.867187 4.3125 15.121094 10.871094 19.480469 3.878906 3.199218 5.128906 4.496094 5.128906 7.199218 0 2.703126-1.25 4-5.121094 7.199219-6.558593 4.355469-10.609374 11.613281-10.878906 19.480469h16c0-2.703125 1.246094-4 5.125-7.199219 6.558594-4.359375 10.609375-11.613281 10.875-19.480469-.261718-7.875-4.316406-15.132812-10.882812-19.488281-3.871094-3.199219-5.117188-4.496093-5.117188-7.199219 0-2.5625 1.023438-3.761718 5.117188-7.160156zm0 0" fill="url(#c)"/><path d="m221.121094 259.472656c6.5625-4.351562 10.617187-11.605468 10.882812-19.472656h-16c0 2.566406-1.023437 3.769531-5.121094 7.199219-6.757812 4.167969-10.871093 11.539062-10.871093 19.476562s4.113281 15.308594 10.871093 19.476563c3.878907 3.199218 5.128907 4.496094 5.128907 7.199218 0 2.703126-1.25 3.960938-5.121094 7.199219-6.550781 4.351563-10.605469 11.589844-10.886719 19.449219h16c0-2.703125 1.246094-4 5.125-7.199219 6.761719-4.167969 10.878906-11.542969 10.878906-19.484375s-4.117187-15.316406-10.878906-19.484375c-3.871094-3.199219-5.117187-4.496093-5.117187-7.199219-.007813-2.5625 1.015625-3.761718 5.109375-7.160156zm0 0" fill="url(#d)"/><path d="m269.121094 243.472656c6.5625-4.351562 10.617187-11.605468 10.882812-19.472656h-16c0 2.566406-1.023437 3.769531-5.121094 7.199219-6.757812 4.167969-10.871093 11.539062-10.871093 19.476562s4.113281 15.308594 10.871093 19.476563c3.878907 3.199218 5.128907 4.496094 5.128907 7.199218 0 2.703126-1.25 3.960938-5.121094 7.199219-6.550781 4.351563-10.605469 11.589844-10.886719 19.449219h16c0-2.703125 1.246094-4 5.125-7.199219 6.761719-4.167969 10.878906-11.542969 10.878906-19.484375s-4.117187-15.316406-10.878906-19.484375c-3.871094-3.199219-5.117187-4.496093-5.117187-7.199219-.007813-2.5625 1.015625-3.761718 5.109375-7.160156zm0 0" fill="url(#e)"/><path d="m56.003906 192h16v16h-16zm0 0" fill="url(#f)"/><g fill="url(#g)"><path d="m240.003906 336c-18.769531 0-80 1.734375-80 24v40c0 44.183594 35.816406 80 80 80 44.179688 0 80-35.816406 80-80v-40c0-22.265625-61.234375-24-80-24zm0 16c20.605469-.863281 41.207032 1.84375 60.894532 8-19.691407 6.132812-40.289063 8.839844-60.894532 8-20.609375.839844-41.207031-1.867188-60.898437-8 19.6875-6.15625 40.289062-8.863281 60.898437-8zm64 48c-.207031 33.160156-25.703125 60.667969-58.75 63.386719-33.050781 2.722656-62.699218-20.25-68.324218-52.929688 20.785156 3.953125 41.917968 5.808594 63.074218 5.542969v-16c-21.496094.363281-42.964844-1.695312-64-6.144531v-18c19.480469 7.34375 51.351563 8.144531 64 8.144531 12.648438 0 44.519532-.800781 64-8.144531zm0 0"/><path d="m256.003906 400h16v16h-16zm0 0"/></g></svg>