<svg height="480pt" viewBox="-136 0 480 480.00002" width="480pt" xmlns="http://www.w3.org/2000/svg" xmlns:xlink="http://www.w3.org/1999/xlink"><linearGradient id="a"><stop offset="0" stop-color="#039bca"/><stop offset=".207" stop-color="#3a7ac4"/><stop offset=".598" stop-color="#9c3fb9"/><stop offset=".871" stop-color="#da1ab2"/><stop offset="1" stop-color="#f20baf"/></linearGradient><linearGradient id="b" gradientUnits="userSpaceOnUse" x1="-127.99999" x2="355.25601" xlink:href="#a" y1="83" y2="83"/><linearGradient id="c" gradientUnits="userSpaceOnUse" x1="-127.99999" x2="355.25601" xlink:href="#a" y1="176" y2="176"/><linearGradient id="d" gradientUnits="userSpaceOnUse" x1="-127.99999" x2="355.25601" xlink:href="#a" y1="320" y2="320"/><linearGradient id="e" gradientUnits="userSpaceOnUse" x1="-127.99999" x2="355.25601" xlink:href="#a" y1="432" y2="432"/><linearGradient id="f" gradientUnits="userSpaceOnUse" x1="-127.99999" x2="355.25601" xlink:href="#a" y1="400" y2="400"/><linearGradient id="g" gradientUnits="userSpaceOnUse" x1="-127.99999" x2="355.25601" xlink:href="#a" y1="360" y2="360"/><linearGradient id="h" gradientUnits="userSpaceOnUse" x1="-127.99999" x2="355.25601" xlink:href="#a" y1="120" y2="120"/><path d="m200 0h-192v8c.054688 39.152344 23.855469 74.355469 60.167969 88.992188 9.375 12.160156 16.203125 26.085937 20.070312 40.945312 5.203125 20.796875 16.800781 28.0625 26.746094 28.0625.832031 0 1.660156-.050781 2.488281-.152344 10.796875-1.574218 18.738282-10.9375 18.527344-21.847656-.847656-16.855469 2.144531-33.679688 8.753906-49.207031 33.671875-15.789063 55.195313-49.601563 55.246094-86.792969zm-48.664062 16c-1.796876 10.277344-6.898438 19.691406-14.535157 26.800781l-17.847656-26.800781zm-27.832032 35.671875c-12.363281 5.769531-26.644531 5.769531-39.007812 0l19.503906-29.273437zm-34.457031-35.671875-17.847656 26.800781c-7.636719-7.109375-12.738281-16.523437-14.535157-26.800781zm30.953125 128c.210938 2.832031-1.707031 5.386719-4.488281 5.96875-3.871094.535156-8.800781-4.273438-11.742188-15.890625-2.792969-10.875-7.050781-21.316406-12.65625-31.046875 4.269531.609375 8.574219.933594 12.886719.96875 7.035156-.015625 14.042969-.808594 20.902344-2.359375-3.726563 13.796875-5.378906 28.074219-4.902344 42.359375zm-16-56c-41.066406-.046875-75.445312-31.144531-79.601562-72h16.152343c4.007813 31.992188 31.207031 55.996094 63.449219 55.996094s59.441406-24.003906 63.449219-55.996094h16.152343c-4.15625 40.855469-38.535156 71.953125-79.601562 72zm0 0" fill="url(#b)"/><path d="m144 176c0 13.253906 10.746094 24 24 24s24-10.746094 24-24-10.746094-24-24-24-24 10.746094-24 24zm32 0c0 4.417969-3.582031 8-8 8s-8-3.582031-8-8 3.582031-8 8-8 8 3.582031 8 8zm0 0" fill="url(#c)"/><path d="m0 176h56.449219l2.277343 40h-34.726562c-2.214844-.003906-4.328125.910156-5.847656 2.519531-1.515625 1.613281-2.292969 3.785157-2.152344 5.992188l16 248c.269531 4.21875 3.773438 7.496093 8 7.488281h144c4.226562.007812 7.730469-3.269531 8-7.488281l16-248c.140625-2.207031-.636719-4.378907-2.152344-5.992188-1.519531-1.609375-3.632812-2.523437-5.847656-2.519531h-125.246094l-2.753906-48.457031c-.242188-4.238281-3.753906-7.550781-8-7.542969h-64zm191.472656 56-1.03125 16h-38.441406v16h37.40625l-1.550781 24h-108.992188l-3.199219-56zm-119.472656 216.457031 16-.914062-8.214844-143.542969h107.039063l-10.328125 160h-129l-10.320313-160h26.585938zm-9.152344-160.457031h-26.703125l-3.617187-56h27.121094zm0 0" fill="url(#d)"/><path d="m136 424h16v16h-16zm0 0" fill="url(#e)"/><path d="m104 392h16v16h-16zm0 0" fill="url(#f)"/><path d="m144 352h16v16h-16zm0 0" fill="url(#g)"/><path d="m0 120c0 13.253906 10.746094 24 24 24s24-10.746094 24-24-10.746094-24-24-24-24 10.746094-24 24zm24-8c4.417969 0 8 3.582031 8 8s-3.582031 8-8 8-8-3.582031-8-8 3.582031-8 8-8zm0 0" fill="url(#h)"/></svg>