<svg height="480pt" viewBox="0 -20 480.00385 480" width="480pt" xmlns="http://www.w3.org/2000/svg" xmlns:xlink="http://www.w3.org/1999/xlink"><linearGradient id="a"><stop offset="0" stop-color="#039bca"/><stop offset=".207" stop-color="#3a7ac4"/><stop offset=".598" stop-color="#9c3fb9"/><stop offset=".871" stop-color="#da1ab2"/><stop offset="1" stop-color="#f20baf"/></linearGradient><linearGradient id="b" gradientUnits="userSpaceOnUse" x1="-23.998073" x2="477.201927" xlink:href="#a" y1="220.001925" y2="220.001925"/><linearGradient id="c" gradientUnits="userSpaceOnUse" x1="-23.998073" x2="477.201927" xlink:href="#a" y1="320.001925" y2="320.001925"/><linearGradient id="d" gradientUnits="userSpaceOnUse" x1="-23.998073" x2="477.201927" xlink:href="#a" y1="304.001925" y2="304.001925"/><linearGradient id="e" gradientUnits="userSpaceOnUse" x1="-23.998073" x2="477.201927" xlink:href="#a" y1="160.001925" y2="160.001925"/><linearGradient id="f" gradientUnits="userSpaceOnUse" x1="-23.998073" x2="477.201927" xlink:href="#a" y1="168.001925" y2="168.001925"/><linearGradient id="g" gradientUnits="userSpaceOnUse" x1="-23.998073" x2="477.201927" xlink:href="#a" y1="184.001925" y2="184.001925"/><linearGradient id="h" gradientUnits="userSpaceOnUse" x1="-23.998073" x2="477.201927" xlink:href="#a" y1="80.001925" y2="80.001925"/><linearGradient id="i" gradientUnits="userSpaceOnUse" x1="-23.998073" x2="477.201927" xlink:href="#a" y1="120.001925" y2="120.001925"/><linearGradient id="j" gradientUnits="userSpaceOnUse" x1="-23.998073" x2="477.201927" xlink:href="#a" y1="48.001925" y2="48.001925"/><linearGradient id="k" gradientUnits="userSpaceOnUse" x1="-23.998073" x2="477.201927" xlink:href="#a" y1="104.001925" y2="104.001925"/><linearGradient id="l" gradientUnits="userSpaceOnUse" x1="-23.998073" x2="477.201927" xlink:href="#a" y1="216.001925" y2="216.001925"/><path d="m472 376h-119.0625l15.015625-135.117188c.25-2.261718-.472656-4.523437-1.992187-6.21875-1.515626-1.695312-3.683594-2.664062-5.960938-2.664062h-111.0625l15.015625-135.117188c.25-2.261718-.472656-4.523437-1.992187-6.21875-1.515626-1.695312-3.683594-2.664062-5.960938-2.664062h-3.046875c26.859375-17.757812 43.023437-47.800781 43.046875-80v-8h-192v8c.027344 32.199219 16.191406 62.242188 43.050781 80h-19.050781c-2.273438 0-4.441406.96875-5.957031 2.664062-1.519531 1.695313-2.242188 3.957032-1.992188 6.21875l15.015625 135.117188h-63.066406c-2.273438 0-4.441406.96875-5.957031 2.664062-1.519531 1.695313-2.242188 3.957032-1.992188 6.21875l15.015625 135.117188h-71.066406c-2.570312 0-4.984375 1.238281-6.488281 3.324219-1.5039065 2.085937-1.914063 4.765625-1.101563 7.207031l16 48c1.089844 3.265625 4.148438 5.472656 7.589844 5.46875h432c3.445312.003906 6.503906-2.203125 7.59375-5.46875l16-48c.8125-2.441406.402344-5.121094-1.101562-7.207031-1.503907-2.085938-3.917969-3.324219-6.492188-3.324219zm-120.933594-128-1.777344 16h-106.574218l-1.777344-16zm-99.457031 96-7.113281-64h103.011718l-7.113281 64zm87.007813 16-1.773438 16h-81.640625l-1.777344-16zm-131.414063-112h17.679687l14.222657 128h-46.167969zm-56-16-1.777344-16h85.191407l-1.773438 16zm85.230469-32h-88.800782l-7.109374-64h102.984374zm10.90625-184c-1.792969 10.28125-6.898438 19.695312-14.539063 26.800781l-17.855469-26.800781zm-27.832032 35.675781c-12.363281 5.769531-26.648437 5.769531-39.011718 0l19.503906-29.273437zm-34.449218-35.675781-17.855469 26.800781c-7.640625-7.105469-12.746094-16.519531-14.539063-26.800781zm-64.65625 0h16.152344c4.007812 31.992188 31.207031 55.996094 63.445312 55.996094 32.242188 0 59.441406-24.003906 63.449219-55.996094h16.152343c-4.101562 40.886719-38.511718 72.011719-79.601562 72.011719-41.085938 0-75.496094-31.125-79.597656-72.011719zm126.664062 88-1.777344 16h-106.574218l-1.777344-16zm-56 144-1.777344 16h-106.574218l-1.777344-16zm-99.457031 96-7.113281-64h103.011718l-7.113281 64zm87.007813 16-1.773438 16h-81.640625l-1.777344-16zm271.617187 64h-420.464844l-10.671875-32h441.808594zm0 0" fill="url(#b)"/><path d="m136 312h16v16h-16zm0 0" fill="url(#c)"/><path d="m104 296h16v16h-16zm0 0" fill="url(#d)"/><path d="m312 296h16v16h-16zm0 0" fill="url(#d)"/><path d="m208 152h16v16h-16zm0 0" fill="url(#e)"/><path d="m176 160h16v16h-16zm0 0" fill="url(#f)"/><path d="m312 208c13.257812 0 24-10.742188 24-24 0-13.253906-10.742188-24-24-24-13.253906 0-24 10.746094-24 24 0 13.257812 10.746094 24 24 24zm0-32c4.421875 0 8 3.582031 8 8 0 4.421875-3.578125 8-8 8-4.417969 0-8-3.578125-8-8 0-4.417969 3.582031-8 8-8zm0 0" fill="url(#g)"/><path d="m376 80c0-13.253906-10.742188-24-24-24-13.253906 0-24 10.746094-24 24 0 13.257812 10.746094 24 24 24 13.257812 0 24-10.742188 24-24zm-32 0c0-4.417969 3.582031-8 8-8 4.421875 0 8 3.582031 8 8 0 4.421875-3.578125 8-8 8-4.417969 0-8-3.578125-8-8zm0 0" fill="url(#h)"/><path d="m368 176h16v16h-16zm0 0" fill="url(#g)"/><path d="m280 112h16v16h-16zm0 0" fill="url(#i)"/><path d="m56 168c0 13.257812 10.746094 24 24 24 13.257812 0 24-10.742188 24-24 0-13.253906-10.742188-24-24-24-13.253906 0-24 10.746094-24 24zm32 0c0 4.421875-3.578125 8-8 8-4.417969 0-8-3.578125-8-8 0-4.417969 3.582031-8 8-8 4.421875 0 8 3.582031 8 8zm0 0" fill="url(#f)"/><path d="m56 72c13.257812 0 24-10.742188 24-24 0-13.253906-10.742188-24-24-24-13.253906 0-24 10.746094-24 24 0 13.257812 10.746094 24 24 24zm0-32c4.421875 0 8 3.582031 8 8 0 4.421875-3.578125 8-8 8-4.417969 0-8-3.578125-8-8 0-4.417969 3.582031-8 8-8zm0 0" fill="url(#j)"/><path d="m80 96h16v16h-16zm0 0" fill="url(#k)"/><path d="m32 208h16v16h-16zm0 0" fill="url(#l)"/></svg>