<svg height="480pt" viewBox="-63 0 479 480" width="480pt" xmlns="http://www.w3.org/2000/svg" xmlns:xlink="http://www.w3.org/1999/xlink"><linearGradient id="a"><stop offset="0" stop-color="#039bca"/><stop offset=".207" stop-color="#3a7ac4"/><stop offset=".598" stop-color="#9c3fb9"/><stop offset=".871" stop-color="#da1ab2"/><stop offset="1" stop-color="#f20baf"/></linearGradient><linearGradient id="b" gradientUnits="userSpaceOnUse" x1="-71.5" x2="435.604" xlink:href="#a" y1="240" y2="240"/><linearGradient id="c" gradientUnits="userSpaceOnUse" x1="-71.5" x2="435.604" xlink:href="#a" y1="296" y2="296"/><linearGradient id="d" gradientUnits="userSpaceOnUse" x1="-71.5" x2="435.604" xlink:href="#a" y1="128" y2="128"/><linearGradient id="e" gradientUnits="userSpaceOnUse" x1="-71.5" x2="435.604" xlink:href="#a" y1="152" y2="152"/><linearGradient id="f" gradientUnits="userSpaceOnUse" x1="-71.5" x2="435.604" xlink:href="#a" y1="64" y2="64"/><linearGradient id="g" gradientUnits="userSpaceOnUse" x1="-71.5" x2="435.604" xlink:href="#a" y1="96" y2="96"/><linearGradient id="h" gradientUnits="userSpaceOnUse" x1="-71.5" x2="435.604" xlink:href="#a" y1="232" y2="232"/><linearGradient id="i" gradientUnits="userSpaceOnUse" x1="-71.5" x2="435.604" xlink:href="#a" y1="184" y2="184"/><path d="m264.5 217.886719v-81.886719c-.136719-13.289062-7.902344-25.316406-19.960938-30.902344l-36.039062-21.625v-35.472656h8c4.417969 0 8-3.582031 8-8v-32c0-4.417969-3.582031-8-8-8h-80c-4.417969 0-8 3.582031-8 8v32c0 4.417969 3.582031 8 8 8h8v35.472656l-36 21.597656c-12.074219 5.589844-19.859375 17.625-20 30.929688v81.886719l8 16v124.226562l-8 16v73.886719c.007812 13.304688 8.25 25.214844 20.695312 29.914062 12.449219 4.699219 26.503907 1.207032 35.304688-8.769531 6.0625 6.902344 14.808594 10.859375 24 10.855469h16c9.191406.003906 17.9375-3.953125 24-10.855469 8.800781 9.976563 22.855469 13.46875 35.304688 8.769531 12.445312-4.699218 20.6875-16.609374 20.695312-29.914062v-73.886719l-8-16v-124.226562zm-120-201.886719h64v16h-64zm48 32v32h-32v-32zm56 400c0 8.835938-7.164062 16-16 16s-16-7.164062-16-16h-16c0 8.835938-7.164062 16-16 16h-16c-8.835938 0-16-7.164062-16-16h-16c0 8.835938-7.164062 16-16 16s-16-7.164062-16-16v-70.113281l4.945312-9.886719h20.109376l-9.054688 13.601562v42.398438h16v-37.601562l12.28125-18.398438h55.4375l12.28125 18.398438v37.601562h16v-42.398438l-9.054688-13.601562h20.109376l4.945312 9.886719zm-136-96v-112h128v112zm136-137.886719-4.945312 9.886719h-15.957032l4.902344-14.703125v-33.296875h-16v30.703125l-5.761719 17.296875h-68.476562l-5.761719-17.296875v-30.703125h-16v33.296875l4.902344 14.703125h-16l-4.902344-9.886719v-78.113281c0-7.449219 3.238281-12.070312 12.121094-17.144531l38.09375-22.855469h43.570312l38.09375 22.855469.152344.089843c8.769531 4.984376 11.96875 9.605469 11.96875 17.054688zm0 0" fill="url(#b)"/><path d="m176.5 256c-22.089844 0-40 17.910156-40 40s17.910156 40 40 40 40-17.910156 40-40c-.027344-22.082031-17.917969-39.972656-40-40zm0 64c-13.253906 0-24-10.746094-24-24s10.746094-24 24-24 24 10.746094 24 24-10.746094 24-24 24zm0 0" fill="url(#c)"/><path d="m184.5 120h16v16h-16zm0 0" fill="url(#d)"/><path d="m216.5 144h16v16h-16zm0 0" fill="url(#e)"/><path d="m88.5 64c0-17.671875-14.328125-32-32-32s-32 14.328125-32 32 14.328125 32 32 32 32-14.328125 32-32zm-48 0c0-8.835938 7.164062-16 16-16s16 7.164062 16 16-7.164062 16-16 16-16-7.164062-16-16zm0 0" fill="url(#f)"/><path d="m304.5 120c13.253906 0 24-10.746094 24-24s-10.746094-24-24-24-24 10.746094-24 24 10.746094 24 24 24zm0-32c4.417969 0 8 3.582031 8 8s-3.582031 8-8 8-8-3.582031-8-8 3.582031-8 8-8zm0 0" fill="url(#g)"/><path d="m320.5 264c17.671875 0 32-14.328125 32-32s-14.328125-32-32-32-32 14.328125-32 32 14.328125 32 32 32zm0-48c8.835938 0 16 7.164062 16 16s-7.164062 16-16 16-16-7.164062-16-16 7.164062-16 16-16zm0 0" fill="url(#h)"/><path d="m.5 184c0 13.253906 10.746094 24 24 24s24-10.746094 24-24-10.746094-24-24-24-24 10.746094-24 24zm24-8c4.417969 0 8 3.582031 8 8s-3.582031 8-8 8-8-3.582031-8-8 3.582031-8 8-8zm0 0" fill="url(#i)"/></svg>