<svg height="480pt" viewBox="-40 0 480 480.00007" width="480pt" xmlns="http://www.w3.org/2000/svg" xmlns:xlink="http://www.w3.org/1999/xlink"><linearGradient id="a"><stop offset="0" stop-color="#039bca"/><stop offset=".207" stop-color="#3a7ac4"/><stop offset=".598" stop-color="#9c3fb9"/><stop offset=".871" stop-color="#da1ab2"/><stop offset="1" stop-color="#f20baf"/></linearGradient><linearGradient id="b" gradientUnits="userSpaceOnUse" x1="-39.962249" x2="441.101751" xlink:href="#a" y1="240" y2="240"/><linearGradient id="c" gradientUnits="userSpaceOnUse" x1="-39.962249" x2="441.101751" xlink:href="#a" y1="320" y2="320"/><linearGradient id="d" gradientUnits="userSpaceOnUse" x1="-39.962249" x2="441.101751" xlink:href="#a" y1="72" y2="72"/><linearGradient id="e" gradientUnits="userSpaceOnUse" x1="-39.962249" x2="441.101751" xlink:href="#a" y1="424" y2="424"/><linearGradient id="f" gradientUnits="userSpaceOnUse" x1="-39.962249" x2="441.101751" xlink:href="#a" y1="440" y2="440"/><linearGradient id="g" gradientUnits="userSpaceOnUse" x1="-39.962249" x2="441.101751" xlink:href="#a" y1="368" y2="368"/><linearGradient id="h" gradientUnits="userSpaceOnUse" x1="-39.962249" x2="441.101751" xlink:href="#a" y1="376" y2="376"/><linearGradient id="i" gradientUnits="userSpaceOnUse" x1="-39.962249" x2="441.101751" xlink:href="#a" y1="384" y2="384"/><path d="m56.039062 8v124.6875l-45.65625 45.65625c-7.101562 8.207031-10.800781 18.8125-10.3437495 29.65625v232c.0234375 22.082031 17.9179685 39.972656 39.9999995 40h128c22.078126-.027344 39.972657-17.917969 40-40v-232c.457032-10.84375-3.246093-21.449219-10.34375-29.65625l-45.65625-45.65625v-124.6875c0-4.417969-3.582031-8-8-8h-80c-4.417968 0-8 3.582031-8 8zm136 432c0 13.253906-10.746093 24-24 24h-128c-13.257812 0-24-10.746094-24-24v-136h16c14.183594-.722656 27.921876-5.199219 39.808594-12.976562 9.574219-6.394532 20.644532-10.191407 32.125-11.023438 11.507813.835938 22.605469 4.632812 32.210938 11.023438 11.898437 7.78125 25.652344 12.257812 39.855468 12.976562h16zm0-152h-16c-11.507812-.835938-22.597656-4.632812-32.203124-11.023438-11.902344-7.777343-25.660157-12.257812-39.863282-12.976562-14.179687.71875-27.917968 5.199219-39.800781 12.976562-9.574219 6.394532-20.648437 10.191407-32.132813 11.023438h-16v-56h16c14.183594-.722656 27.921876-5.199219 39.808594-12.976562 9.574219-6.394532 20.644532-10.191407 32.125-11.023438 11.507813.835938 22.605469 4.632812 32.210938 11.023438 11.898437 7.78125 25.652344 12.257812 39.855468 12.976562h16zm-120-272h64v16h-64zm0 64h16v-16h-16v-16h64v48h-64zm0 32h64v16h-64zm68.6875 32 45.65625 45.65625c4.121094 5.1875 6.136719 11.734375 5.65625 18.34375v8h-16c-11.507812-.835938-22.597656-4.632812-32.203124-11.023438-11.902344-7.777343-25.660157-12.257812-39.863282-12.976562-14.179687.71875-27.917968 5.199219-39.800781 12.976562-9.574219 6.394532-20.648437 10.191407-32.132813 11.023438h-16v-8c-.484374-6.609375 1.535157-13.15625 5.65625-18.34375l45.65625-45.65625zm0 0" fill="url(#b)"/><path d="m104.039062 296c-22.808593 0-40 10.320312-40 24s17.191407 24 40 24c22.808594 0 40-10.320312 40-24s-17.191406-24-40-24zm0 32c-15.488281 0-24-6.007812-24-8s8.511719-8 24-8c15.488282 0 24 6.007812 24 8s-8.511718 8-24 8zm0 0" fill="url(#c)"/><path d="m104.039062 64h16v16h-16zm0 0" fill="url(#d)"/><path d="m48.039062 400h-16v32c0 8.835938 7.164063 16 16 16h16v-16h-16zm0 0" fill="url(#e)"/><path d="m80.039062 432h16v16h-16zm0 0" fill="url(#f)"/><g fill="url(#g)"><path d="m64.039062 360h80v16h-80zm0 0"/><path d="m160.039062 360h16v16h-16zm0 0"/><path d="m32.039062 360h16v16h-16zm0 0"/></g><path d="m330.382812 405.65625c3.121094 3.121094 8.1875 3.121094 11.3125 0l24-24c3.121094-3.125 3.121094-8.1875 0-11.3125l-24-24c-3.125-3.121094-8.191406-3.121094-11.3125 0l-24 24c-3.125 3.125-3.125 8.1875 0 11.3125zm5.65625-42.34375 12.6875 12.6875-12.6875 12.6875-12.6875-12.6875zm0 0" fill="url(#h)"/><path d="m248.039062 480h128c4.148438.015625 7.621094-3.140625 8-7.273438l16-176c.203126-2.242187-.546874-4.46875-2.070312-6.132812-1.523438-1.660156-3.675781-2.601562-5.929688-2.59375h-160c-2.253906-.007812-4.410156.933594-5.933593 2.59375-1.519531 1.664062-2.273438 3.890625-2.066407 6.132812l16 176c.375 4.132813 3.851563 7.289063 8 7.273438zm120.695313-16h-113.394531l-1.453125-16h116.304687zm-88.695313-48v-16h16v16zm91.605469 16h-67.605469c4.417969 0 8-3.582031 8-8v-32c0-4.417969-3.582031-8-8-8h-32c-4.417968 0-8 3.582031-8 8v32c0 4.417969 3.582032 8 8 8h-19.609374l-8.71875-96h136.65625zm11.632813-128-1.457032 16h-139.566406l-1.417968-16zm0 0" fill="url(#i)"/></svg>