<svg height="480pt" viewBox="-72 0 480 480.00051" width="480pt" xmlns="http://www.w3.org/2000/svg" xmlns:xlink="http://www.w3.org/1999/xlink"><linearGradient id="a"><stop offset="0" stop-color="#039bca"/><stop offset=".207" stop-color="#3a7ac4"/><stop offset=".598" stop-color="#9c3fb9"/><stop offset=".871" stop-color="#da1ab2"/><stop offset="1" stop-color="#f20baf"/></linearGradient><linearGradient id="b" gradientUnits="userSpaceOnUse" x1="-95.992267" x2="405.207733" xlink:href="#a" y1="240" y2="240"/><linearGradient id="c" gradientUnits="userSpaceOnUse" x1="-95.992267" x2="405.207733" xlink:href="#a" y1="440" y2="440"/><linearGradient id="d" gradientUnits="userSpaceOnUse" x1="-95.992267" x2="405.207733" xlink:href="#a" y1="336" y2="336"/><linearGradient id="e" gradientUnits="userSpaceOnUse" x1="-95.992267" x2="405.207733" xlink:href="#a" y1="264" y2="264"/><linearGradient id="f" gradientUnits="userSpaceOnUse" x1="-95.992267" x2="405.207733" xlink:href="#a" y1="152" y2="152"/><linearGradient id="g" gradientUnits="userSpaceOnUse" x1="-95.992267" x2="405.207733" xlink:href="#a" y1="120" y2="120"/><path d="m168.007812 480h160c4.417969 0 8-3.582031 8-8v-272c0-1.910156-.683593-3.757812-1.929687-5.207031l-46.070313-53.753907v-133.039062c0-4.417969-3.582031-8-8-8h-64c-4.417968 0-8 3.582031-8 8v133.039062l-46.070312 53.753907c-1.246094 1.449219-1.929688 3.296875-1.929688 5.207031v272c0 4.417969 3.582032 8 8 8zm56-464h48v32h-48zm-48 224h96v160h-96zm0 208h88v-16h-88v-16h104c4.417969 0 8-3.582031 8-8v-176c0-4.417969-3.582031-8-8-8h-104v-16h32v-16h-22.609374l36.679687-42.792969c1.246094-1.449219 1.929687-3.296875 1.929687-5.207031v-16h16v-16h-16v-16h32v-16h-32v-16h48v80c0 1.910156.683594 3.757812 1.929688 5.207031l36.679688 42.792969h-70.609376v16h80v256h-144zm0 0" fill="url(#b)"/><path d="m280.007812 432h16v16h-16zm0 0" fill="url(#c)"/><path d="m64.007812 335.527344v99.527344l-59.574218 29.785156c-3.324219 1.65625-5.070313 5.382812-4.21875 8.996094.851562 3.613281 4.078125 6.167968 7.792968 6.164062h128c3.746094.042969 7.019532-2.519531 7.878907-6.167969.855469-3.644531-.929688-7.398437-4.304688-9.03125l-59.574219-29.746093v-99.527344c36.410157-4.109375 63.945313-34.882813 64-71.527344v-64c0-4.417969-3.582031-8-8-8h-128c-4.417968 0-7.9999995 3.582031-7.9999995 8v64c.0546875 36.644531 27.5859375 67.417969 63.9999995 71.527344zm38.113282 128.472656h-60.226563l30.113281-15.054688zm-86.113282-256h112v16h-112zm0 32h112v24c0 30.929688-25.070312 56-56 56-30.929687 0-56-25.070312-56-56zm0 0" fill="url(#d)"/><path d="m32.007812 256h16v16h-16zm0 0" fill="url(#e)"/><path d="m104.007812 176c13.253907 0 24-10.746094 24-24s-10.746093-24-24-24c-13.253906 0-24 10.746094-24 24s10.746094 24 24 24zm0-32c4.417969 0 8 3.582031 8 8s-3.582031 8-8 8c-4.417968 0-8-3.582031-8-8s3.582032-8 8-8zm0 0" fill="url(#f)"/><path d="m48.007812 144c13.253907 0 24-10.746094 24-24s-10.746093-24-24-24c-13.253906 0-24 10.746094-24 24s10.746094 24 24 24zm0-32c4.417969 0 8 3.582031 8 8s-3.582031 8-8 8c-4.417968 0-8-3.582031-8-8s3.582032-8 8-8zm0 0" fill="url(#g)"/></svg>