<svg height="480pt" viewBox="-80 0 480 480.00006" width="480pt" xmlns="http://www.w3.org/2000/svg" xmlns:xlink="http://www.w3.org/1999/xlink"><linearGradient id="a"><stop offset="0" stop-color="#039bca"/><stop offset=".207" stop-color="#3a7ac4"/><stop offset=".598" stop-color="#9c3fb9"/><stop offset=".871" stop-color="#da1ab2"/><stop offset="1" stop-color="#f20baf"/></linearGradient><linearGradient id="b" gradientUnits="userSpaceOnUse" x1="-87.99997" x2="397.36803" xlink:href="#a" y1="240" y2="240"/><linearGradient id="c" gradientUnits="userSpaceOnUse" x1="-87.99997" x2="397.36803" xlink:href="#a" y1="40" y2="40"/><linearGradient id="d" gradientUnits="userSpaceOnUse" x1="-87.99997" x2="397.36803" xlink:href="#a" y1="292" y2="292"/><linearGradient id="e" gradientUnits="userSpaceOnUse" x1="-87.99997" x2="397.36803" xlink:href="#a" y1="188" y2="188"/><linearGradient id="f" gradientUnits="userSpaceOnUse" x1="-87.99997" x2="397.36803" xlink:href="#a" y1="232" y2="232"/><linearGradient id="g" gradientUnits="userSpaceOnUse" x1="-87.99997" x2="397.36803" xlink:href="#a" y1="176" y2="176"/><linearGradient id="h" gradientUnits="userSpaceOnUse" x1="-87.99997" x2="397.36803" xlink:href="#a" y1="248" y2="248"/><linearGradient id="i" gradientUnits="userSpaceOnUse" x1="-87.99997" x2="397.36803" xlink:href="#a" y1="288" y2="288"/><linearGradient id="j" gradientUnits="userSpaceOnUse" x1="-87.99997" x2="397.36803" xlink:href="#a" y1="415.432" y2="415.432"/><linearGradient id="k" gradientUnits="userSpaceOnUse" x1="-87.99997" x2="397.36803" xlink:href="#a" y1="440" y2="440"/><path d="m312 64h-16v-56c0-4.417969-3.582031-8-8-8h-256c-4.417969 0-8 3.582031-8 8v56h-16c-4.417969 0-8 3.582031-8 8v32c0 4.417969 3.582031 8 8 8h16.664062l31.335938 360.695312c.363281 4.144532 3.839844 7.320313 8 7.304688h192c4.160156.015625 7.636719-3.160156 8-7.304688l31.335938-360.695312h16.664062c4.417969 0 8-3.582031 8-8v-32c0-4.417969-3.582031-8-8-8zm-272-16h32v-16h-32v-16h240v16h-56v16h56v16h-240zm208.664062 416h-177.328124l-10.398438-120h198.160156zm11.824219-136h-200.976562l-14.792969-170.054688c4.96875 1.425782 10.113281 2.117188 15.28125 2.054688 10.78125.210938 21.355469-3.003906 30.191406-9.183594 13.105469-9.089844 30.472656-9.089844 43.578125 0 18.261719 12.246094 42.113281 12.246094 60.375 0 13.125-9.089844 30.507813-9.089844 43.632813 0 8.847656 6.1875 19.429687 9.402344 30.222656 9.183594 2.410156-.046875 4.816406-.238281 7.199219-.585938zm16.085938-184.96875c-2.8125.636719-5.6875.960938-8.574219.96875-7.832031.199219-15.507812-2.195312-21.832031-6.816406-18.273438-12.246094-42.128907-12.246094-60.398438 0-13.109375 9.089844-30.484375 9.089844-43.59375 0-18.257812-12.242188-42.101562-12.242188-60.359375 0-6.320312 4.621094-13.992187 7.019531-21.816406 6.816406-5.847656.203125-11.644531-1.148438-16.800781-3.921875l-2.398438-28.078125h238.472657zm27.425781-47.03125h-288v-16h288zm0 0" fill="url(#b)"/><path d="m88 32h16v16h-16zm0 0" fill="url(#c)"/><path d="m136 272c-14.546875.054688-27.226562 9.914062-30.863281 24h-17.136719v16h96v-16h-17.136719c-3.636719-14.085938-16.316406-23.945312-30.863281-24zm-13.847656 24c2.859375-4.941406 8.136718-7.984375 13.847656-7.984375s10.988281 3.042969 13.847656 7.984375zm0 0" fill="url(#d)"/><path d="m160 208v-16h-17.136719c-3.589843-14.113281-16.300781-23.992188-30.863281-23.992188s-27.273438 9.878907-30.863281 23.992188h-17.136719v16zm-48-24c5.714844.003906 10.992188 3.050781 13.847656 8h-27.695312c2.855468-4.949219 8.132812-7.996094 13.847656-8zm0 0" fill="url(#e)"/><path d="m192 208c-19 .023438-35.371094 13.386719-39.199219 32h-16.800781v16h112v-16h-16.800781c-3.828125-18.613281-20.199219-31.976562-39.199219-32zm-22.632812 32c3.386718-9.597656 12.457031-16.011719 22.632812-16.011719s19.246094 6.414063 22.632812 16.011719zm0 0" fill="url(#f)"/><path d="m208 168h16v16h-16zm0 0" fill="url(#g)"/><path d="m80 240h16v16h-16zm0 0" fill="url(#h)"/><path d="m216 280h16v16h-16zm0 0" fill="url(#i)"/><path d="m120 448v-16h-17.0625l-7.015625-49.136719-15.84375 2.273438 8.984375 62.863281zm0 0" fill="url(#j)"/><path d="m216 432h16v16h-16zm0 0" fill="url(#k)"/></svg>